<svg width="461" height="625" viewBox="0 0 461 625" fill="none" xmlns="http://www.w3.org/2000/svg">
<g opacity="0.4">
<rect width="3.66769" height="3.66769" transform="translate(0 4.83459)" fill="white"/>
<circle cx="1.83385" cy="6.66844" r="1.83385" fill="#A5B9B4"/>
<rect width="11.2995" height="11.2995" transform="translate(12.8555 1.0188)" fill="white"/>
<ellipse cx="18.5052" cy="6.66853" rx="5.64974" ry="5.64973" fill="#A5B9B4"/>
<rect width="13.2259" height="13.2259" transform="translate(28.5637 0.055542)" fill="white"/>
<circle cx="35.1766" cy="6.66851" r="6.61297" fill="#A5B9B4"/>
<rect width="13.3371" height="13.3371" transform="translate(45.1794)" fill="white"/>
<circle cx="51.8479" cy="6.66854" r="6.66854" fill="#A5B9B4"/>
<rect width="13.3371" height="13.3371" transform="translate(61.8508)" fill="white"/>
<circle cx="68.5193" cy="6.66854" r="6.66854" fill="#A5B9B4"/>
<rect width="13.3371" height="13.3371" transform="translate(78.5221)" fill="white"/>
<circle cx="85.1906" cy="6.66854" r="6.66854" fill="#A5B9B4"/>
<rect width="13.3371" height="13.3371" transform="translate(95.1934)" fill="white"/>
<circle cx="101.862" cy="6.66854" r="6.66854" fill="#A5B9B4"/>
<rect width="13.3371" height="13.3371" transform="translate(111.865)" fill="white"/>
<circle cx="118.533" cy="6.66854" r="6.66854" fill="#A5B9B4"/>
<rect width="13.3371" height="13.3371" transform="translate(128.536)" fill="white"/>
<circle cx="135.205" cy="6.66854" r="6.66854" fill="#A5B9B4"/>
<rect width="13.3371" height="13.3371" transform="translate(145.207)" fill="white"/>
<circle cx="151.876" cy="6.66854" r="6.66854" fill="#A5B9B4"/>
<rect width="13.3371" height="13.3371" transform="translate(161.879)" fill="white"/>
<circle cx="168.547" cy="6.66854" r="6.66854" fill="#A5B9B4"/>
<rect width="13.1333" height="13.1333" transform="translate(178.652 0.101807)" fill="white"/>
<ellipse cx="185.219" cy="6.66846" rx="6.56667" ry="6.56666" fill="#A5B9B4"/>
<rect width="12.6517" height="12.6517" transform="translate(195.564 0.342651)" fill="white"/>
<circle cx="201.89" cy="6.66851" r="6.32585" fill="#A5B9B4"/>
<rect width="13.3371" height="13.3371" transform="translate(211.893)" fill="white"/>
<circle cx="218.561" cy="6.66854" r="6.66854" fill="#A5B9B4"/>
<rect width="13.3371" height="13.3371" transform="translate(228.564)" fill="white"/>
<circle cx="235.233" cy="6.66854" r="6.66854" fill="#A5B9B4"/>
<rect width="13.3371" height="13.3371" transform="translate(245.236)" fill="white"/>
<circle cx="251.904" cy="6.66854" r="6.66854" fill="#A5B9B4"/>
<rect width="13.3371" height="13.3371" transform="translate(261.907)" fill="white"/>
<circle cx="268.576" cy="6.66854" r="6.66854" fill="#A5B9B4"/>
<rect width="12.911" height="12.911" transform="translate(278.791 0.213013)" fill="white"/>
<circle cx="285.247" cy="6.66853" r="6.45552" fill="#A5B9B4"/>
<rect width="9.66939" height="9.66939" transform="translate(297.084 1.83374)" fill="white"/>
<circle cx="301.918" cy="6.66843" r="4.83469" fill="#A5B9B4"/>
<rect width="7.3169" height="7.31687" transform="translate(314.931 3.01013)" fill="white"/>
<ellipse cx="318.59" cy="6.66857" rx="3.65845" ry="3.65843" fill="#A5B9B4"/>
<rect width="4.50125" height="4.50128" transform="translate(333.01 4.41797)" fill="white"/>
<ellipse cx="335.261" cy="6.66861" rx="2.25063" ry="2.25064" fill="#A5B9B4"/>
<rect width="9.26186" height="9.26186" transform="translate(347.301 2.03748)" fill="white"/>
<circle cx="351.932" cy="6.66841" r="4.63093" fill="#A5B9B4"/>
<rect width="11.707" height="11.707" transform="translate(20.9873 17.4863)" fill="white"/>
<ellipse cx="26.8408" cy="23.3398" rx="5.8535" ry="5.85349" fill="#A5B9B4"/>
<rect width="13.3371" height="13.3371" transform="translate(36.8437 16.6713)" fill="white"/>
<circle cx="43.5122" cy="23.3398" r="6.66854" fill="#A5B9B4"/>
<rect width="13.3371" height="13.3371" transform="translate(53.5151 16.6713)" fill="white"/>
<circle cx="60.1836" cy="23.3398" r="6.66854" fill="#A5B9B4"/>
<rect width="13.3371" height="13.3371" transform="translate(70.1865 16.6713)" fill="white"/>
<circle cx="76.855" cy="23.3398" r="6.66854" fill="#A5B9B4"/>
<rect width="13.3371" height="13.3371" transform="translate(86.8578 16.6713)" fill="white"/>
<circle cx="93.5263" cy="23.3398" r="6.66854" fill="#A5B9B4"/>
<rect width="13.3371" height="13.3371" transform="translate(103.529 16.6713)" fill="white"/>
<circle cx="110.198" cy="23.3398" r="6.66854" fill="#A5B9B4"/>
<rect width="13.3371" height="13.3371" transform="translate(120.2 16.6713)" fill="white"/>
<circle cx="126.869" cy="23.3398" r="6.66854" fill="#A5B9B4"/>
<rect width="13.3371" height="13.3371" transform="translate(136.872 16.6713)" fill="white"/>
<circle cx="143.54" cy="23.3398" r="6.66854" fill="#A5B9B4"/>
<rect width="13.3371" height="13.3371" transform="translate(153.543 16.6713)" fill="white"/>
<circle cx="160.212" cy="23.3398" r="6.66854" fill="#A5B9B4"/>
<rect width="11.6144" height="11.6144" transform="translate(171.076 17.5327)" fill="white"/>
<circle cx="176.883" cy="23.3399" r="5.80719" fill="#A5B9B4"/>
<rect width="6.7982" height="6.7982" transform="translate(190.155 19.9408)" fill="white"/>
<circle cx="193.554" cy="23.3399" r="3.3991" fill="#A5B9B4"/>
<rect width="10.0954" height="10.0954" transform="translate(205.178 18.2922)" fill="white"/>
<circle cx="210.226" cy="23.34" r="5.04771" fill="#A5B9B4"/>
<rect width="13.0222" height="13.0222" transform="translate(220.386 16.8287)" fill="white"/>
<circle cx="226.897" cy="23.3398" r="6.51109" fill="#A5B9B4"/>
<rect width="13.3371" height="13.3371" transform="translate(236.9 16.6713)" fill="white"/>
<circle cx="243.568" cy="23.3398" r="6.66854" fill="#A5B9B4"/>
<rect width="13.3371" height="13.3371" transform="translate(253.571 16.6713)" fill="white"/>
<circle cx="260.24" cy="23.3398" r="6.66854" fill="#A5B9B4"/>
<rect width="13.3371" height="13.3371" transform="translate(270.243 16.6713)" fill="white"/>
<circle cx="276.911" cy="23.3398" r="6.66854" fill="#A5B9B4"/>
<rect width="13.3371" height="13.3371" transform="translate(286.914 16.6713)" fill="white"/>
<ellipse cx="293.582" cy="23.3398" rx="6.66855" ry="6.66854" fill="#A5B9B4"/>
<rect width="6.68709" height="6.68707" transform="translate(306.91 19.9965)" fill="white"/>
<ellipse cx="310.254" cy="23.34" rx="3.34355" ry="3.34353" fill="#A5B9B4"/>
<rect width="2.14876" height="2.14876" transform="translate(325.851 22.2656)" fill="white"/>
<circle cx="326.925" cy="23.34" r="1.07438" fill="#A5B9B4"/>
<rect width="4.70504" height="4.70501" transform="translate(341.244 20.9873)" fill="white"/>
<ellipse cx="343.597" cy="23.3398" rx="2.35252" ry="2.35251" fill="#A5B9B4"/>
<rect width="6.4833" height="6.4833" transform="translate(357.026 20.0981)" fill="white"/>
<circle cx="360.268" cy="23.3398" r="3.24165" fill="#A5B9B4"/>
<rect width="5.39041" height="5.39041" transform="translate(15.8101 37.3162)" fill="white"/>
<circle cx="18.5053" cy="40.0114" r="2.69521" fill="#A5B9B4"/>
<rect width="13.3371" height="13.3371" transform="translate(28.5081 33.3428)" fill="white"/>
<circle cx="35.1766" cy="40.0113" r="6.66854" fill="#A5B9B4"/>
<rect width="13.3371" height="13.3371" transform="translate(45.1794 33.3428)" fill="white"/>
<circle cx="51.8479" cy="40.0113" r="6.66854" fill="#A5B9B4"/>
<rect width="13.3371" height="13.3371" transform="translate(61.8508 33.3428)" fill="white"/>
<circle cx="68.5193" cy="40.0113" r="6.66854" fill="#A5B9B4"/>
<rect width="13.3371" height="13.3371" transform="translate(78.5221 33.3428)" fill="white"/>
<circle cx="85.1906" cy="40.0113" r="6.66854" fill="#A5B9B4"/>
<rect width="13.3371" height="13.3371" transform="translate(95.1934 33.3428)" fill="white"/>
<circle cx="101.862" cy="40.0113" r="6.66854" fill="#A5B9B4"/>
<rect width="13.3371" height="13.3371" transform="translate(111.865 33.3428)" fill="white"/>
<circle cx="118.533" cy="40.0113" r="6.66854" fill="#A5B9B4"/>
<rect width="13.3371" height="13.3371" transform="translate(128.536 33.3428)" fill="white"/>
<circle cx="135.205" cy="40.0113" r="6.66854" fill="#A5B9B4"/>
<rect width="13.3371" height="13.3371" transform="translate(145.207 33.3428)" fill="white"/>
<circle cx="151.876" cy="40.0113" r="6.66854" fill="#A5B9B4"/>
<rect width="13.3371" height="13.3371" transform="translate(161.879 33.3428)" fill="white"/>
<circle cx="168.547" cy="40.0113" r="6.66854" fill="#A5B9B4"/>
<rect width="13.3371" height="13.3371" transform="translate(178.55 33.3428)" fill="white"/>
<circle cx="185.219" cy="40.0113" r="6.66854" fill="#A5B9B4"/>
<rect width="9.66939" height="9.66939" transform="translate(197.055 35.1765)" fill="white"/>
<circle cx="201.89" cy="40.0112" r="4.83469" fill="#A5B9B4"/>
<rect width="7.68736" height="7.68736" transform="translate(214.718 36.1676)" fill="white"/>
<circle cx="218.562" cy="40.0113" r="3.84368" fill="#A5B9B4"/>
<rect width="10.9846" height="10.9846" transform="translate(229.741 34.519)" fill="white"/>
<circle cx="235.233" cy="40.0113" r="5.49229" fill="#A5B9B4"/>
<rect width="12.133" height="12.133" transform="translate(245.838 33.9447)" fill="white"/>
<circle cx="251.904" cy="40.0112" r="6.06652" fill="#A5B9B4"/>
<rect width="13.3371" height="13.3371" transform="translate(261.907 33.3428)" fill="white"/>
<circle cx="268.576" cy="40.0113" r="6.66854" fill="#A5B9B4"/>
<rect width="10.8178" height="10.8178" transform="translate(279.838 34.6024)" fill="white"/>
<circle cx="285.247" cy="40.0113" r="5.40892" fill="#A5B9B4"/>
<rect width="9.00256" height="9.00253" transform="translate(297.417 35.51)" fill="white"/>
<ellipse cx="301.918" cy="40.0113" rx="4.50128" ry="4.50127" fill="#A5B9B4"/>
<rect width="6.07578" height="6.07578" transform="translate(315.552 36.9734)" fill="white"/>
<circle cx="318.59" cy="40.0113" r="3.03789" fill="#A5B9B4"/>
<rect width="12.2442" height="12.2442" transform="translate(20.7188 50.5605)" fill="white"/>
<circle cx="26.8408" cy="56.6826" r="6.12209" fill="#A5B9B4"/>
<rect width="13.3371" height="13.3371" transform="translate(36.8437 50.014)" fill="white"/>
<circle cx="43.5122" cy="56.6826" r="6.66854" fill="#A5B9B4"/>
<rect width="13.3371" height="13.3371" transform="translate(53.5151 50.014)" fill="white"/>
<circle cx="60.1836" cy="56.6826" r="6.66854" fill="#A5B9B4"/>
<rect width="13.3371" height="13.3371" transform="translate(70.1865 50.014)" fill="white"/>
<circle cx="76.855" cy="56.6826" r="6.66854" fill="#A5B9B4"/>
<rect width="13.3371" height="13.3371" transform="translate(86.8578 50.014)" fill="white"/>
<circle cx="93.5263" cy="56.6826" r="6.66854" fill="#A5B9B4"/>
<rect width="13.3371" height="13.3371" transform="translate(103.529 50.014)" fill="white"/>
<circle cx="110.198" cy="56.6826" r="6.66854" fill="#A5B9B4"/>
<rect width="13.3371" height="13.3371" transform="translate(120.2 50.014)" fill="white"/>
<circle cx="126.869" cy="56.6826" r="6.66854" fill="#A5B9B4"/>
<rect width="13.3371" height="13.3371" transform="translate(136.872 50.014)" fill="white"/>
<circle cx="143.54" cy="56.6826" r="6.66854" fill="#A5B9B4"/>
<rect width="13.3371" height="13.3371" transform="translate(153.543 50.014)" fill="white"/>
<circle cx="160.212" cy="56.6826" r="6.66854" fill="#A5B9B4"/>
<rect width="13.3371" height="13.3371" transform="translate(170.215 50.014)" fill="white"/>
<circle cx="176.883" cy="56.6826" r="6.66854" fill="#A5B9B4"/>
<rect width="11.6144" height="11.6144" transform="translate(187.747 50.8754)" fill="white"/>
<circle cx="193.554" cy="56.6826" r="5.80719" fill="#A5B9B4"/>
<rect width="12.7628" height="12.7628" transform="translate(203.844 50.3013)" fill="white"/>
<circle cx="210.226" cy="56.6827" r="6.38142" fill="#A5B9B4"/>
<rect width="10.7252" height="10.7252" transform="translate(221.535 51.3198)" fill="white"/>
<circle cx="226.897" cy="56.6824" r="5.36261" fill="#A5B9B4"/>
<rect width="13.3371" height="13.3371" transform="translate(236.9 50.014)" fill="white"/>
<circle cx="243.568" cy="56.6826" r="6.66854" fill="#A5B9B4"/>
<rect width="13.2815" height="13.2815" transform="translate(253.599 50.0419)" fill="white"/>
<circle cx="260.24" cy="56.6826" r="6.64075" fill="#A5B9B4"/>
<rect width="7.68736" height="7.68736" transform="translate(273.068 52.839)" fill="white"/>
<circle cx="276.911" cy="56.6827" r="3.84368" fill="#A5B9B4"/>
<rect width="4.18635" height="4.18635" transform="translate(16.412 71.2606)" fill="white"/>
<circle cx="18.5052" cy="73.3538" r="2.09318" fill="#A5B9B4"/>
<rect width="13.3371" height="13.3371" transform="translate(28.5081 66.6855)" fill="white"/>
<circle cx="35.1766" cy="73.3541" r="6.66854" fill="#A5B9B4"/>
<rect width="13.3371" height="13.3371" transform="translate(45.1794 66.6855)" fill="white"/>
<circle cx="51.8479" cy="73.3541" r="6.66854" fill="#A5B9B4"/>
<rect width="13.3371" height="13.3371" transform="translate(61.8508 66.6855)" fill="white"/>
<circle cx="68.5193" cy="73.3541" r="6.66854" fill="#A5B9B4"/>
<rect width="13.3371" height="13.3371" transform="translate(78.5221 66.6855)" fill="white"/>
<circle cx="85.1906" cy="73.3541" r="6.66854" fill="#A5B9B4"/>
<rect width="13.3371" height="13.3371" transform="translate(95.1934 66.6855)" fill="white"/>
<circle cx="101.862" cy="73.3541" r="6.66854" fill="#A5B9B4"/>
<rect width="13.3371" height="13.3371" transform="translate(111.865 66.6855)" fill="white"/>
<circle cx="118.533" cy="73.3541" r="6.66854" fill="#A5B9B4"/>
<rect width="13.3371" height="13.3371" transform="translate(128.536 66.6855)" fill="white"/>
<circle cx="135.205" cy="73.3541" r="6.66854" fill="#A5B9B4"/>
<rect width="13.3371" height="13.3371" transform="translate(145.207 66.6855)" fill="white"/>
<circle cx="151.876" cy="73.3541" r="6.66854" fill="#A5B9B4"/>
<rect width="13.3371" height="13.3371" transform="translate(161.879 66.6855)" fill="white"/>
<circle cx="168.547" cy="73.3541" r="6.66854" fill="#A5B9B4"/>
<rect width="13.3371" height="13.3371" transform="translate(178.55 66.6855)" fill="white"/>
<circle cx="185.219" cy="73.3541" r="6.66854" fill="#A5B9B4"/>
<rect width="13.3371" height="13.3371" transform="translate(195.222 66.6855)" fill="white"/>
<circle cx="201.89" cy="73.3541" r="6.66854" fill="#A5B9B4"/>
<rect width="13.3371" height="13.3371" transform="translate(211.893 66.6855)" fill="white"/>
<circle cx="218.561" cy="73.3541" r="6.66854" fill="#A5B9B4"/>
<rect width="13.3371" height="13.3371" transform="translate(228.564 66.6855)" fill="white"/>
<circle cx="235.233" cy="73.3541" r="6.66854" fill="#A5B9B4"/>
<rect width="12.3368" height="12.3368" transform="translate(245.736 67.1855)" fill="white"/>
<ellipse cx="251.904" cy="73.354" rx="6.16839" ry="6.16841" fill="#A5B9B4"/>
<rect width="1.83386" height="1.83386" transform="translate(267.659 72.437)" fill="white"/>
<circle cx="268.576" cy="73.3539" r="0.91693" fill="#A5B9B4"/>
<rect width="4.01965" height="4.01965" transform="translate(24.8311 88.0155)" fill="white"/>
<circle cx="26.8409" cy="90.0253" r="2.00982" fill="#A5B9B4"/>
<rect width="13.2815" height="13.2815" transform="translate(36.8715 83.3846)" fill="white"/>
<circle cx="43.5123" cy="90.0254" r="6.64075" fill="#A5B9B4"/>
<rect width="13.3371" height="13.3371" transform="translate(53.5151 83.3568)" fill="white"/>
<circle cx="60.1836" cy="90.0254" r="6.66854" fill="#A5B9B4"/>
<rect width="13.3371" height="13.3371" transform="translate(70.1865 83.3568)" fill="white"/>
<circle cx="76.855" cy="90.0254" r="6.66854" fill="#A5B9B4"/>
<rect width="13.3371" height="13.3371" transform="translate(86.8578 83.3568)" fill="white"/>
<circle cx="93.5263" cy="90.0254" r="6.66854" fill="#A5B9B4"/>
<rect width="13.3371" height="13.3371" transform="translate(103.529 83.3568)" fill="white"/>
<circle cx="110.198" cy="90.0254" r="6.66854" fill="#A5B9B4"/>
<rect width="13.3371" height="13.3371" transform="translate(120.2 83.3568)" fill="white"/>
<circle cx="126.869" cy="90.0254" r="6.66854" fill="#A5B9B4"/>
<rect width="13.3371" height="13.3371" transform="translate(136.872 83.3568)" fill="white"/>
<circle cx="143.54" cy="90.0254" r="6.66854" fill="#A5B9B4"/>
<rect width="13.3371" height="13.3371" transform="translate(153.543 83.3568)" fill="white"/>
<circle cx="160.212" cy="90.0254" r="6.66854" fill="#A5B9B4"/>
<rect width="13.3371" height="13.3371" transform="translate(170.215 83.3568)" fill="white"/>
<circle cx="176.883" cy="90.0254" r="6.66854" fill="#A5B9B4"/>
<rect width="13.3371" height="13.3371" transform="translate(186.886 83.3568)" fill="white"/>
<circle cx="193.554" cy="90.0254" r="6.66854" fill="#A5B9B4"/>
<rect width="13.3371" height="13.3371" transform="translate(203.557 83.3568)" fill="white"/>
<circle cx="210.226" cy="90.0254" r="6.66854" fill="#A5B9B4"/>
<rect width="13.3371" height="13.3371" transform="translate(220.229 83.3568)" fill="white"/>
<circle cx="226.897" cy="90.0254" r="6.66854" fill="#A5B9B4"/>
<rect width="13.0778" height="13.0777" transform="translate(237.03 83.4863)" fill="white"/>
<ellipse cx="243.568" cy="90.0252" rx="6.53889" ry="6.53887" fill="#A5B9B4"/>
<rect width="2.61182" height="2.61185" transform="translate(258.934 88.7195)" fill="white"/>
<ellipse cx="260.24" cy="90.0254" rx="1.30591" ry="1.30593" fill="#A5B9B4"/>
<rect width="1.88943" height="1.88943" transform="translate(34.2318 105.752)" fill="white"/>
<circle cx="35.1765" cy="106.697" r="0.944714" fill="#A5B9B4"/>
<rect width="9.78053" height="9.78053" transform="translate(46.9576 101.806)" fill="white"/>
<circle cx="51.8478" cy="106.697" r="4.89026" fill="#A5B9B4"/>
<rect width="13.3371" height="13.3371" transform="translate(61.8508 100.028)" fill="white"/>
<circle cx="68.5193" cy="106.697" r="6.66854" fill="#A5B9B4"/>
<rect width="13.3371" height="13.3371" transform="translate(78.5221 100.028)" fill="white"/>
<circle cx="85.1906" cy="106.697" r="6.66854" fill="#A5B9B4"/>
<rect width="13.3371" height="13.3371" transform="translate(95.1934 100.028)" fill="white"/>
<circle cx="101.862" cy="106.697" r="6.66854" fill="#A5B9B4"/>
<rect width="13.3371" height="13.3371" transform="translate(111.865 100.028)" fill="white"/>
<circle cx="118.533" cy="106.697" r="6.66854" fill="#A5B9B4"/>
<rect width="13.3371" height="13.3371" transform="translate(128.536 100.028)" fill="white"/>
<circle cx="135.205" cy="106.697" r="6.66854" fill="#A5B9B4"/>
<rect width="13.3371" height="13.3371" transform="translate(145.207 100.028)" fill="white"/>
<circle cx="151.876" cy="106.697" r="6.66854" fill="#A5B9B4"/>
<rect width="13.3371" height="13.3371" transform="translate(161.879 100.028)" fill="white"/>
<circle cx="168.547" cy="106.697" r="6.66854" fill="#A5B9B4"/>
<rect width="13.3371" height="13.3371" transform="translate(178.55 100.028)" fill="white"/>
<circle cx="185.219" cy="106.697" r="6.66854" fill="#A5B9B4"/>
<rect width="13.3371" height="13.3371" transform="translate(195.222 100.028)" fill="white"/>
<circle cx="201.89" cy="106.697" r="6.66854" fill="#A5B9B4"/>
<rect width="13.3371" height="13.3371" transform="translate(211.893 100.028)" fill="white"/>
<circle cx="218.561" cy="106.697" r="6.66854" fill="#A5B9B4"/>
<rect width="11.0957" height="11.0957" transform="translate(229.685 101.149)" fill="white"/>
<circle cx="235.233" cy="106.697" r="5.54786" fill="#A5B9B4"/>
<rect width="2.09316" height="2.09316" transform="translate(250.858 105.65)" fill="white"/>
<circle cx="251.904" cy="106.697" r="1.04658" fill="#A5B9B4"/>
<rect width="7.85407" height="7.85407" transform="translate(56.2566 119.441)" fill="white"/>
<circle cx="60.1836" cy="123.368" r="3.92704" fill="#A5B9B4"/>
<rect width="11.0957" height="11.0957" transform="translate(71.3071 117.82)" fill="white"/>
<circle cx="76.855" cy="123.368" r="5.54786" fill="#A5B9B4"/>
<rect width="13.3371" height="13.3371" transform="translate(86.8578 116.699)" fill="white"/>
<circle cx="93.5263" cy="123.368" r="6.66854" fill="#A5B9B4"/>
<rect width="13.3371" height="13.3371" transform="translate(103.529 116.699)" fill="white"/>
<circle cx="110.198" cy="123.368" r="6.66854" fill="#A5B9B4"/>
<rect width="13.3371" height="13.3371" transform="translate(120.2 116.699)" fill="white"/>
<circle cx="126.869" cy="123.368" r="6.66854" fill="#A5B9B4"/>
<rect width="13.3371" height="13.3371" transform="translate(136.872 116.699)" fill="white"/>
<circle cx="143.54" cy="123.368" r="6.66854" fill="#A5B9B4"/>
<rect width="13.1889" height="13.1889" transform="translate(153.617 116.773)" fill="white"/>
<circle cx="160.212" cy="123.368" r="6.59446" fill="#A5B9B4"/>
<rect width="13.0778" height="13.0777" transform="translate(170.344 116.829)" fill="white"/>
<ellipse cx="176.883" cy="123.368" rx="6.53889" ry="6.53887" fill="#A5B9B4"/>
<rect width="11.0402" height="11.0402" transform="translate(188.034 117.848)" fill="white"/>
<circle cx="193.554" cy="123.368" r="5.52008" fill="#A5B9B4"/>
<rect width="12.2442" height="12.2442" transform="translate(204.104 117.246)" fill="white"/>
<circle cx="210.226" cy="123.368" r="6.12209" fill="#A5B9B4"/>
<rect width="8.4283" height="8.4283" transform="translate(222.683 119.154)" fill="white"/>
<circle cx="226.897" cy="123.368" r="4.21415" fill="#A5B9B4"/>
<rect width="7.68736" height="7.68736" transform="translate(64.6757 136.196)" fill="white"/>
<circle cx="68.5193" cy="140.039" r="3.84368" fill="#A5B9B4"/>
<rect width="10.151" height="10.151" transform="translate(80.1151 134.964)" fill="white"/>
<circle cx="85.1906" cy="140.039" r="5.0755" fill="#A5B9B4"/>
<rect width="13.3371" height="13.3371" transform="translate(95.1934 133.371)" fill="white"/>
<circle cx="101.862" cy="140.039" r="6.66854" fill="#A5B9B4"/>
<rect width="13.3371" height="13.3371" transform="translate(111.865 133.371)" fill="white"/>
<circle cx="118.533" cy="140.039" r="6.66854" fill="#A5B9B4"/>
<rect width="13.3371" height="13.3371" transform="translate(128.536 133.371)" fill="white"/>
<circle cx="135.205" cy="140.039" r="6.66854" fill="#A5B9B4"/>
<rect width="9.03956" height="9.03956" transform="translate(147.356 135.52)" fill="white"/>
<circle cx="151.876" cy="140.039" r="4.51978" fill="#A5B9B4"/>
<rect width="0.9447" height="0.9447" transform="translate(168.075 139.567)" fill="white"/>
<circle cx="168.547" cy="140.039" r="0.47235" fill="#A5B9B4"/>
<rect width="1.72272" height="1.72272" transform="translate(184.357 139.178)" fill="white"/>
<circle cx="185.219" cy="140.039" r="0.861361" fill="#A5B9B4"/>
<rect width="5.53861" height="5.53861" transform="translate(215.792 137.27)" fill="white"/>
<circle cx="218.561" cy="140.039" r="2.7693" fill="#A5B9B4"/>
<rect width="4.13078" height="4.13078" transform="translate(233.167 137.974)" fill="white"/>
<circle cx="235.233" cy="140.039" r="2.06539" fill="#A5B9B4"/>
<rect width="4.76058" height="4.76058" transform="translate(74.4745 154.33)" fill="white"/>
<circle cx="76.8548" cy="156.711" r="2.38029" fill="#A5B9B4"/>
<rect width="6.53887" height="6.53887" transform="translate(90.2568 153.441)" fill="white"/>
<circle cx="93.5263" cy="156.711" r="3.26944" fill="#A5B9B4"/>
<rect width="13.1889" height="13.1889" transform="translate(103.603 150.116)" fill="white"/>
<ellipse cx="110.198" cy="156.711" rx="6.59446" ry="6.59444" fill="#A5B9B4"/>
<rect width="13.3371" height="13.3371" transform="translate(120.2 150.042)" fill="white"/>
<circle cx="126.869" cy="156.711" r="6.66854" fill="#A5B9B4"/>
<rect width="11.7625" height="11.7626" transform="translate(137.659 150.829)" fill="white"/>
<ellipse cx="143.54" cy="156.711" rx="5.88127" ry="5.88129" fill="#A5B9B4"/>
<rect width="3.76031" height="3.76031" transform="translate(225.017 154.831)" fill="white"/>
<circle cx="226.897" cy="156.711" r="1.88016" fill="#A5B9B4"/>
<rect width="1.51893" height="1.51893" transform="translate(242.809 155.951)" fill="white"/>
<circle cx="243.568" cy="156.711" r="0.759466" fill="#A5B9B4"/>
<rect width="1.09292" height="1.09289" transform="translate(84.644 172.836)" fill="white"/>
<ellipse cx="85.1905" cy="173.382" rx="0.546461" ry="0.546447" fill="#A5B9B4"/>
<rect width="1.77829" height="1.77826" transform="translate(100.973 172.493)" fill="white"/>
<ellipse cx="101.862" cy="173.382" rx="0.889145" ry="0.889131" fill="#A5B9B4"/>
<rect width="12.8184" height="12.8184" transform="translate(112.124 166.973)" fill="white"/>
<ellipse cx="118.533" cy="173.382" rx="6.40921" ry="6.40922" fill="#A5B9B4"/>
<rect width="13.3371" height="13.3371" transform="translate(128.536 166.714)" fill="white"/>
<ellipse cx="135.205" cy="173.382" rx="6.66854" ry="6.66853" fill="#A5B9B4"/>
<rect width="5.13108" height="5.13105" transform="translate(149.311 170.816)" fill="white"/>
<ellipse cx="151.876" cy="173.382" rx="2.56554" ry="2.56553" fill="#A5B9B4"/>
<rect width="2.24138" height="2.24136" transform="translate(184.098 172.261)" fill="white"/>
<ellipse cx="185.219" cy="173.382" rx="1.12069" ry="1.12068" fill="#A5B9B4"/>
<rect width="2.24138" height="2.24136" transform="translate(200.769 172.261)" fill="white"/>
<ellipse cx="201.89" cy="173.382" rx="1.12069" ry="1.12068" fill="#A5B9B4"/>
<rect width="3.55655" height="3.55658" transform="translate(216.783 171.604)" fill="white"/>
<ellipse cx="218.561" cy="173.382" rx="1.77828" ry="1.77829" fill="#A5B9B4"/>
<rect width="6.07578" height="6.07578" transform="translate(232.195 170.344)" fill="white"/>
<circle cx="235.233" cy="173.382" r="3.03789" fill="#A5B9B4"/>
<rect width="3.50098" height="3.50096" transform="translate(250.154 171.632)" fill="white"/>
<ellipse cx="251.904" cy="173.382" rx="1.75049" ry="1.75048" fill="#A5B9B4"/>
<rect width="3.40839" height="3.40836" transform="translate(108.493 188.349)" fill="white"/>
<ellipse cx="110.198" cy="190.054" rx="1.70419" ry="1.70418" fill="#A5B9B4"/>
<rect width="12.0775" height="12.0775" transform="translate(120.83 184.015)" fill="white"/>
<ellipse cx="126.869" cy="190.053" rx="6.03874" ry="6.03873" fill="#A5B9B4"/>
<rect width="13.3371" height="13.3371" transform="translate(136.872 183.385)" fill="white"/>
<ellipse cx="143.54" cy="190.053" rx="6.66854" ry="6.66853" fill="#A5B9B4"/>
<rect width="6.7982" height="6.79823" transform="translate(156.813 186.654)" fill="white"/>
<ellipse cx="160.212" cy="190.053" rx="3.3991" ry="3.39912" fill="#A5B9B4"/>
<rect width="6.7982" height="6.79823" transform="translate(173.484 186.654)" fill="white"/>
<ellipse cx="176.883" cy="190.053" rx="3.3991" ry="3.39912" fill="#A5B9B4"/>
<rect width="10.0954" height="10.0954" transform="translate(188.507 185.006)" fill="white"/>
<ellipse cx="193.554" cy="190.053" rx="5.04771" ry="5.0477" fill="#A5B9B4"/>
<rect width="3.29722" height="3.29722" transform="translate(241.92 188.405)" fill="white"/>
<circle cx="243.569" cy="190.053" r="1.64861" fill="#A5B9B4"/>
<rect width="4.64945" height="4.64947" transform="translate(257.915 187.729)" fill="white"/>
<ellipse cx="260.24" cy="190.053" rx="2.32472" ry="2.32474" fill="#A5B9B4"/>
<rect width="8.52093" height="8.52093" transform="translate(272.651 185.793)" fill="white"/>
<circle cx="276.911" cy="190.053" r="4.26046" fill="#A5B9B4"/>
<rect width="3.13051" height="3.13051" transform="translate(292.017 188.488)" fill="white"/>
<circle cx="293.583" cy="190.053" r="1.56526" fill="#A5B9B4"/>
<rect width="2.66739" height="2.66742" transform="translate(133.871 205.391)" fill="white"/>
<ellipse cx="135.205" cy="206.725" rx="1.3337" ry="1.33371" fill="#A5B9B4"/>
<rect width="7.68736" height="7.68734" transform="translate(148.032 202.881)" fill="white"/>
<ellipse cx="151.876" cy="206.725" rx="3.84368" ry="3.84367" fill="#A5B9B4"/>
<rect width="9.78053" height="9.78053" transform="translate(163.657 201.835)" fill="white"/>
<circle cx="168.547" cy="206.725" r="4.89026" fill="#A5B9B4"/>
<rect width="13.1889" height="13.1889" transform="translate(178.624 200.13)" fill="white"/>
<ellipse cx="185.219" cy="206.725" rx="6.59446" ry="6.59444" fill="#A5B9B4"/>
<rect width="6.96491" height="6.96494" transform="translate(198.408 203.242)" fill="white"/>
<ellipse cx="201.89" cy="206.725" rx="3.48246" ry="3.48247" fill="#A5B9B4"/>
<rect width="2.87118" height="2.87121" transform="translate(217.126 205.289)" fill="white"/>
<ellipse cx="218.561" cy="206.725" rx="1.43559" ry="1.43561" fill="#A5B9B4"/>
<rect width="1.83386" height="1.83383" transform="translate(175.966 222.479)" fill="white"/>
<ellipse cx="176.883" cy="223.396" rx="0.91693" ry="0.916915" fill="#A5B9B4"/>
<rect width="6.90934" height="6.90937" transform="translate(190.1 219.941)" fill="white"/>
<ellipse cx="193.554" cy="223.396" rx="3.45467" ry="3.45469" fill="#A5B9B4"/>
<rect width="11.9293" height="11.9293" transform="translate(204.261 217.431)" fill="white"/>
<ellipse cx="210.226" cy="223.396" rx="5.96463" ry="5.96464" fill="#A5B9B4"/>
<rect width="2.51926" height="2.51926" transform="translate(275.652 222.137)" fill="white"/>
<circle cx="276.911" cy="223.396" r="1.25963" fill="#A5B9B4"/>
<rect width="2.40809" height="2.40812" transform="translate(200.686 238.863)" fill="white"/>
<ellipse cx="201.89" cy="240.067" rx="1.20405" ry="1.20406" fill="#A5B9B4"/>
<rect width="7.57623" height="7.5762" transform="translate(214.773 236.279)" fill="white"/>
<ellipse cx="218.561" cy="240.068" rx="3.78811" ry="3.7881" fill="#A5B9B4"/>
<rect width="4.33457" height="4.33455" transform="translate(233.065 237.9)" fill="white"/>
<ellipse cx="235.233" cy="240.068" rx="2.16729" ry="2.16727" fill="#A5B9B4"/>
<rect width="5.96464" height="5.96464" transform="translate(248.922 237.085)" fill="white"/>
<circle cx="251.904" cy="240.067" r="2.98232" fill="#A5B9B4"/>
<rect width="12.5961" height="12.5962" transform="translate(262.277 233.769)" fill="white"/>
<ellipse cx="268.576" cy="240.067" rx="6.29807" ry="6.29808" fill="#A5B9B4"/>
<rect width="12.7628" height="12.7628" transform="translate(278.865 233.686)" fill="white"/>
<circle cx="285.247" cy="240.068" r="6.38141" fill="#A5B9B4"/>
<rect width="9.78053" height="9.78053" transform="translate(297.028 235.177)" fill="white"/>
<circle cx="301.918" cy="240.067" r="4.89026" fill="#A5B9B4"/>
<rect width="9.66939" height="9.66939" transform="translate(313.755 235.233)" fill="white"/>
<circle cx="318.59" cy="240.067" r="4.83469" fill="#A5B9B4"/>
<rect width="1.20403" height="1.20403" transform="translate(334.659 239.465)" fill="white"/>
<circle cx="335.261" cy="240.067" r="0.602015" fill="#A5B9B4"/>
<rect width="2.55626" height="2.55628" transform="translate(225.619 255.461)" fill="white"/>
<ellipse cx="226.897" cy="256.739" rx="1.27813" ry="1.27814" fill="#A5B9B4"/>
<rect width="6.90934" height="6.90937" transform="translate(240.114 253.284)" fill="white"/>
<ellipse cx="243.568" cy="256.739" rx="3.45467" ry="3.45469" fill="#A5B9B4"/>
<rect width="13.3371" height="13.3371" transform="translate(253.571 250.07)" fill="white"/>
<ellipse cx="260.24" cy="256.739" rx="6.66854" ry="6.66853" fill="#A5B9B4"/>
<rect width="13.3371" height="13.3371" transform="translate(270.243 250.07)" fill="white"/>
<ellipse cx="276.911" cy="256.739" rx="6.66854" ry="6.66853" fill="#A5B9B4"/>
<rect width="13.3371" height="13.3371" transform="translate(286.914 250.07)" fill="white"/>
<ellipse cx="293.582" cy="256.739" rx="6.66855" ry="6.66853" fill="#A5B9B4"/>
<rect width="13.3371" height="13.3371" transform="translate(303.585 250.07)" fill="white"/>
<ellipse cx="310.254" cy="256.739" rx="6.66855" ry="6.66853" fill="#A5B9B4"/>
<rect width="13.2815" height="13.2815" transform="translate(320.285 250.098)" fill="white"/>
<circle cx="326.925" cy="256.739" r="6.64077" fill="#A5B9B4"/>
<rect width="7.4836" height="7.4836" transform="translate(339.855 252.997)" fill="white"/>
<circle cx="343.597" cy="256.739" r="3.7418" fill="#A5B9B4"/>
<rect width="3.29722" height="3.29722" transform="translate(358.619 255.09)" fill="white"/>
<circle cx="360.268" cy="256.739" r="1.64861" fill="#A5B9B4"/>
<rect width="11.7625" height="11.7626" transform="translate(246.023 267.529)" fill="white"/>
<ellipse cx="251.904" cy="273.41" rx="5.88127" ry="5.88129" fill="#A5B9B4"/>
<rect width="13.3371" height="13.3371" transform="translate(261.907 266.742)" fill="white"/>
<ellipse cx="268.576" cy="273.41" rx="6.66854" ry="6.66853" fill="#A5B9B4"/>
<rect width="13.3371" height="13.3371" transform="translate(278.578 266.742)" fill="white"/>
<ellipse cx="285.247" cy="273.41" rx="6.66855" ry="6.66853" fill="#A5B9B4"/>
<rect width="13.3371" height="13.3371" transform="translate(295.25 266.742)" fill="white"/>
<ellipse cx="301.918" cy="273.41" rx="6.66855" ry="6.66853" fill="#A5B9B4"/>
<rect width="13.3371" height="13.3371" transform="translate(311.921 266.742)" fill="white"/>
<ellipse cx="318.59" cy="273.41" rx="6.66855" ry="6.66853" fill="#A5B9B4"/>
<rect width="13.3371" height="13.3371" transform="translate(328.592 266.742)" fill="white"/>
<ellipse cx="335.261" cy="273.41" rx="6.66855" ry="6.66853" fill="#A5B9B4"/>
<rect width="13.3371" height="13.3371" transform="translate(345.264 266.742)" fill="white"/>
<ellipse cx="351.932" cy="273.41" rx="6.66855" ry="6.66853" fill="#A5B9B4"/>
<rect width="11.6144" height="11.6144" transform="translate(362.796 267.603)" fill="white"/>
<circle cx="368.604" cy="273.41" r="5.80718" fill="#A5B9B4"/>
<rect width="2.24138" height="2.24136" transform="translate(225.776 288.961)" fill="white"/>
<ellipse cx="226.897" cy="290.082" rx="1.12069" ry="1.12068" fill="#A5B9B4"/>
<rect width="12.7073" height="12.7073" transform="translate(237.215 283.728)" fill="white"/>
<ellipse cx="243.568" cy="290.082" rx="6.35364" ry="6.35365" fill="#A5B9B4"/>
<rect width="13.3371" height="13.3371" transform="translate(253.571 283.413)" fill="white"/>
<ellipse cx="260.24" cy="290.082" rx="6.66854" ry="6.66853" fill="#A5B9B4"/>
<rect width="13.3371" height="13.3371" transform="translate(270.243 283.413)" fill="white"/>
<ellipse cx="276.911" cy="290.082" rx="6.66854" ry="6.66853" fill="#A5B9B4"/>
<rect width="13.3371" height="13.3371" transform="translate(286.914 283.413)" fill="white"/>
<ellipse cx="293.582" cy="290.082" rx="6.66855" ry="6.66853" fill="#A5B9B4"/>
<rect width="13.3371" height="13.3371" transform="translate(303.585 283.413)" fill="white"/>
<ellipse cx="310.254" cy="290.082" rx="6.66855" ry="6.66853" fill="#A5B9B4"/>
<rect width="13.3371" height="13.3371" transform="translate(320.257 283.413)" fill="white"/>
<ellipse cx="326.925" cy="290.082" rx="6.66855" ry="6.66853" fill="#A5B9B4"/>
<rect width="13.3371" height="13.3371" transform="translate(336.928 283.413)" fill="white"/>
<ellipse cx="343.597" cy="290.082" rx="6.66855" ry="6.66853" fill="#A5B9B4"/>
<rect width="13.3371" height="13.3371" transform="translate(353.599 283.413)" fill="white"/>
<ellipse cx="360.268" cy="290.082" rx="6.66855" ry="6.66853" fill="#A5B9B4"/>
<rect width="11.2995" height="11.2995" transform="translate(371.29 284.432)" fill="white"/>
<circle cx="376.939" cy="290.082" r="5.64974" fill="#A5B9B4"/>
<rect width="2.72299" height="2.72299" transform="translate(392.249 288.72)" fill="white"/>
<circle cx="393.611" cy="290.082" r="1.3615" fill="#A5B9B4"/>
<rect width="11.4477" height="11.4476" transform="translate(229.509 301.029)" fill="white"/>
<ellipse cx="235.233" cy="306.753" rx="5.72384" ry="5.72382" fill="#A5B9B4"/>
<rect width="13.3371" height="13.3371" transform="translate(245.236 300.084)" fill="white"/>
<ellipse cx="251.904" cy="306.753" rx="6.66854" ry="6.66853" fill="#A5B9B4"/>
<rect width="13.3371" height="13.3371" transform="translate(261.907 300.084)" fill="white"/>
<ellipse cx="268.576" cy="306.753" rx="6.66854" ry="6.66853" fill="#A5B9B4"/>
<rect width="13.3371" height="13.3371" transform="translate(278.578 300.084)" fill="white"/>
<ellipse cx="285.247" cy="306.753" rx="6.66855" ry="6.66853" fill="#A5B9B4"/>
<rect width="13.3371" height="13.3371" transform="translate(295.25 300.084)" fill="white"/>
<ellipse cx="301.918" cy="306.753" rx="6.66855" ry="6.66853" fill="#A5B9B4"/>
<rect width="13.3371" height="13.3371" transform="translate(311.921 300.084)" fill="white"/>
<ellipse cx="318.59" cy="306.753" rx="6.66855" ry="6.66853" fill="#A5B9B4"/>
<rect width="13.3371" height="13.3371" transform="translate(328.592 300.084)" fill="white"/>
<ellipse cx="335.261" cy="306.753" rx="6.66855" ry="6.66853" fill="#A5B9B4"/>
<rect width="13.3371" height="13.3371" transform="translate(345.264 300.084)" fill="white"/>
<ellipse cx="351.932" cy="306.753" rx="6.66855" ry="6.66853" fill="#A5B9B4"/>
<rect width="13.3371" height="13.3371" transform="translate(361.935 300.084)" fill="white"/>
<ellipse cx="368.604" cy="306.753" rx="6.66855" ry="6.66853" fill="#A5B9B4"/>
<rect width="13.2259" height="13.2259" transform="translate(378.662 300.14)" fill="white"/>
<circle cx="385.275" cy="306.753" r="6.61296" fill="#A5B9B4"/>
<rect width="12.2997" height="12.2997" transform="translate(395.797 300.603)" fill="white"/>
<circle cx="401.946" cy="306.753" r="6.14986" fill="#A5B9B4"/>
<rect width="7.53917" height="7.53917" transform="translate(414.848 302.983)" fill="white"/>
<circle cx="418.618" cy="306.753" r="3.76959" fill="#A5B9B4"/>
<rect width="3.92702" height="3.92702" transform="translate(433.326 304.789)" fill="white"/>
<circle cx="435.289" cy="306.753" r="1.96351" fill="#A5B9B4"/>
<rect width="4.81615" height="4.81618" transform="translate(224.489 321.016)" fill="white"/>
<ellipse cx="226.897" cy="323.424" rx="2.40808" ry="2.40809" fill="#A5B9B4"/>
<rect width="13.2259" height="13.2259" transform="translate(236.956 316.811)" fill="white"/>
<ellipse cx="243.568" cy="323.424" rx="6.61297" ry="6.61296" fill="#A5B9B4"/>
<rect width="13.3371" height="13.3371" transform="translate(253.571 316.756)" fill="white"/>
<ellipse cx="260.24" cy="323.424" rx="6.66854" ry="6.66853" fill="#A5B9B4"/>
<rect width="13.3371" height="13.3371" transform="translate(270.243 316.756)" fill="white"/>
<ellipse cx="276.911" cy="323.424" rx="6.66854" ry="6.66853" fill="#A5B9B4"/>
<rect width="13.3371" height="13.3371" transform="translate(286.914 316.756)" fill="white"/>
<ellipse cx="293.582" cy="323.424" rx="6.66855" ry="6.66853" fill="#A5B9B4"/>
<rect width="13.3371" height="13.3371" transform="translate(303.585 316.756)" fill="white"/>
<ellipse cx="310.254" cy="323.424" rx="6.66855" ry="6.66853" fill="#A5B9B4"/>
<rect width="13.3371" height="13.3371" transform="translate(320.257 316.756)" fill="white"/>
<ellipse cx="326.925" cy="323.424" rx="6.66855" ry="6.66853" fill="#A5B9B4"/>
<rect width="13.3371" height="13.3371" transform="translate(336.928 316.756)" fill="white"/>
<ellipse cx="343.597" cy="323.424" rx="6.66855" ry="6.66853" fill="#A5B9B4"/>
<rect width="13.3371" height="13.3371" transform="translate(353.599 316.756)" fill="white"/>
<ellipse cx="360.268" cy="323.424" rx="6.66855" ry="6.66853" fill="#A5B9B4"/>
<rect width="13.3371" height="13.3371" transform="translate(370.271 316.756)" fill="white"/>
<ellipse cx="376.939" cy="323.424" rx="6.66855" ry="6.66853" fill="#A5B9B4"/>
<rect width="13.3371" height="13.3371" transform="translate(386.942 316.756)" fill="white"/>
<ellipse cx="393.611" cy="323.424" rx="6.66855" ry="6.66853" fill="#A5B9B4"/>
<rect width="13.3371" height="13.3371" transform="translate(403.614 316.756)" fill="white"/>
<ellipse cx="410.282" cy="323.424" rx="6.66855" ry="6.66853" fill="#A5B9B4"/>
<rect width="13.3371" height="13.3371" transform="translate(420.285 316.756)" fill="white"/>
<ellipse cx="426.953" cy="323.424" rx="6.66855" ry="6.66853" fill="#A5B9B4"/>
<rect width="11.8181" height="11.8181" transform="translate(437.716 317.515)" fill="white"/>
<circle cx="443.625" cy="323.424" r="5.90907" fill="#A5B9B4"/>
<rect width="1.40782" height="1.40782" transform="translate(459.592 322.72)" fill="white"/>
<circle cx="460.296" cy="323.424" r="0.703911" fill="#A5B9B4"/>
<rect width="3.44541" height="3.44544" transform="translate(233.51 338.373)" fill="white"/>
<ellipse cx="235.233" cy="340.096" rx="1.72271" ry="1.72272" fill="#A5B9B4"/>
<rect width="13.2259" height="13.2259" transform="translate(245.291 333.483)" fill="white"/>
<ellipse cx="251.904" cy="340.096" rx="6.61297" ry="6.61296" fill="#A5B9B4"/>
<rect width="13.3371" height="13.3371" transform="translate(261.907 333.427)" fill="white"/>
<ellipse cx="268.576" cy="340.096" rx="6.66854" ry="6.66853" fill="#A5B9B4"/>
<rect width="13.3371" height="13.3371" transform="translate(278.578 333.427)" fill="white"/>
<ellipse cx="285.247" cy="340.096" rx="6.66855" ry="6.66853" fill="#A5B9B4"/>
<rect width="13.3371" height="13.3371" transform="translate(295.25 333.427)" fill="white"/>
<ellipse cx="301.918" cy="340.096" rx="6.66855" ry="6.66853" fill="#A5B9B4"/>
<rect width="13.3371" height="13.3371" transform="translate(311.921 333.427)" fill="white"/>
<ellipse cx="318.59" cy="340.096" rx="6.66855" ry="6.66853" fill="#A5B9B4"/>
<rect width="13.3371" height="13.3371" transform="translate(328.592 333.427)" fill="white"/>
<ellipse cx="335.261" cy="340.096" rx="6.66855" ry="6.66853" fill="#A5B9B4"/>
<rect width="13.3371" height="13.3371" transform="translate(345.264 333.427)" fill="white"/>
<ellipse cx="351.932" cy="340.096" rx="6.66855" ry="6.66853" fill="#A5B9B4"/>
<rect width="13.3371" height="13.3371" transform="translate(361.935 333.427)" fill="white"/>
<ellipse cx="368.604" cy="340.096" rx="6.66855" ry="6.66853" fill="#A5B9B4"/>
<rect width="13.3371" height="13.3371" transform="translate(378.606 333.427)" fill="white"/>
<ellipse cx="385.275" cy="340.096" rx="6.66855" ry="6.66853" fill="#A5B9B4"/>
<rect width="13.3371" height="13.3371" transform="translate(395.278 333.427)" fill="white"/>
<ellipse cx="401.946" cy="340.096" rx="6.66855" ry="6.66853" fill="#A5B9B4"/>
<rect width="13.3371" height="13.3371" transform="translate(411.949 333.427)" fill="white"/>
<ellipse cx="418.618" cy="340.096" rx="6.66855" ry="6.66853" fill="#A5B9B4"/>
<rect width="13.3371" height="13.3371" transform="translate(428.62 333.427)" fill="white"/>
<ellipse cx="435.289" cy="340.096" rx="6.66855" ry="6.66853" fill="#A5B9B4"/>
<rect width="7.3169" height="7.31684" transform="translate(448.302 336.437)" fill="white"/>
<ellipse cx="451.96" cy="340.096" rx="3.65845" ry="3.65842" fill="#A5B9B4"/>
<rect width="3.98262" height="3.98259" transform="translate(241.577 354.776)" fill="white"/>
<ellipse cx="243.569" cy="356.767" rx="1.99131" ry="1.9913" fill="#A5B9B4"/>
<rect width="13.2259" height="13.2259" transform="translate(253.627 350.154)" fill="white"/>
<ellipse cx="260.24" cy="356.767" rx="6.61297" ry="6.61296" fill="#A5B9B4"/>
<rect width="13.3371" height="13.3371" transform="translate(270.243 350.098)" fill="white"/>
<ellipse cx="276.911" cy="356.767" rx="6.66854" ry="6.66853" fill="#A5B9B4"/>
<rect width="13.3371" height="13.3371" transform="translate(286.914 350.098)" fill="white"/>
<ellipse cx="293.582" cy="356.767" rx="6.66855" ry="6.66853" fill="#A5B9B4"/>
<rect width="13.3371" height="13.3371" transform="translate(303.585 350.098)" fill="white"/>
<ellipse cx="310.254" cy="356.767" rx="6.66855" ry="6.66853" fill="#A5B9B4"/>
<rect width="13.3371" height="13.3371" transform="translate(320.257 350.098)" fill="white"/>
<ellipse cx="326.925" cy="356.767" rx="6.66855" ry="6.66853" fill="#A5B9B4"/>
<rect width="13.3371" height="13.3371" transform="translate(336.928 350.098)" fill="white"/>
<ellipse cx="343.597" cy="356.767" rx="6.66855" ry="6.66853" fill="#A5B9B4"/>
<rect width="13.3371" height="13.3371" transform="translate(353.599 350.098)" fill="white"/>
<ellipse cx="360.268" cy="356.767" rx="6.66855" ry="6.66853" fill="#A5B9B4"/>
<rect width="13.3371" height="13.3371" transform="translate(370.271 350.098)" fill="white"/>
<ellipse cx="376.939" cy="356.767" rx="6.66855" ry="6.66853" fill="#A5B9B4"/>
<rect width="13.3371" height="13.3371" transform="translate(386.942 350.098)" fill="white"/>
<ellipse cx="393.611" cy="356.767" rx="6.66855" ry="6.66853" fill="#A5B9B4"/>
<rect width="13.3371" height="13.3371" transform="translate(403.614 350.098)" fill="white"/>
<ellipse cx="410.282" cy="356.767" rx="6.66855" ry="6.66853" fill="#A5B9B4"/>
<rect width="13.1333" height="13.1333" transform="translate(420.387 350.201)" fill="white"/>
<circle cx="426.953" cy="356.767" r="6.56666" fill="#A5B9B4"/>
<rect width="4.39011" height="4.39011" transform="translate(441.43 354.572)" fill="white"/>
<circle cx="443.625" cy="356.767" r="2.19506" fill="#A5B9B4"/>
<rect width="3.35282" height="3.35279" transform="translate(250.228 371.762)" fill="white"/>
<ellipse cx="251.904" cy="373.438" rx="1.67641" ry="1.6764" fill="#A5B9B4"/>
<rect width="11.7625" height="11.7626" transform="translate(262.694 367.557)" fill="white"/>
<ellipse cx="268.576" cy="373.438" rx="5.88127" ry="5.88129" fill="#A5B9B4"/>
<rect width="13.3371" height="13.3371" transform="translate(278.578 366.77)" fill="white"/>
<ellipse cx="285.247" cy="373.438" rx="6.66855" ry="6.66853" fill="#A5B9B4"/>
<rect width="13.3371" height="13.3371" transform="translate(295.25 366.77)" fill="white"/>
<ellipse cx="301.918" cy="373.438" rx="6.66855" ry="6.66853" fill="#A5B9B4"/>
<rect width="13.3371" height="13.3371" transform="translate(311.921 366.77)" fill="white"/>
<ellipse cx="318.59" cy="373.438" rx="6.66855" ry="6.66853" fill="#A5B9B4"/>
<rect width="13.3371" height="13.3371" transform="translate(328.592 366.77)" fill="white"/>
<ellipse cx="335.261" cy="373.438" rx="6.66855" ry="6.66853" fill="#A5B9B4"/>
<rect width="13.3371" height="13.3371" transform="translate(345.264 366.77)" fill="white"/>
<ellipse cx="351.932" cy="373.438" rx="6.66855" ry="6.66853" fill="#A5B9B4"/>
<rect width="13.3371" height="13.3371" transform="translate(361.935 366.77)" fill="white"/>
<ellipse cx="368.604" cy="373.438" rx="6.66855" ry="6.66853" fill="#A5B9B4"/>
<rect width="13.3371" height="13.3371" transform="translate(378.606 366.77)" fill="white"/>
<ellipse cx="385.275" cy="373.438" rx="6.66855" ry="6.66853" fill="#A5B9B4"/>
<rect width="13.3371" height="13.3371" transform="translate(395.278 366.77)" fill="white"/>
<ellipse cx="401.946" cy="373.438" rx="6.66855" ry="6.66853" fill="#A5B9B4"/>
<rect width="13.3371" height="13.3371" transform="translate(411.949 366.77)" fill="white"/>
<ellipse cx="418.618" cy="373.438" rx="6.66855" ry="6.66853" fill="#A5B9B4"/>
<rect width="6.33514" height="6.33514" transform="translate(432.122 370.271)" fill="white"/>
<circle cx="435.289" cy="373.438" r="3.16757" fill="#A5B9B4"/>
<rect width="5.70531" height="5.70528" transform="translate(274.058 387.257)" fill="white"/>
<ellipse cx="276.911" cy="390.11" rx="2.85266" ry="2.85264" fill="#A5B9B4"/>
<rect width="13.3371" height="13.3371" transform="translate(286.914 383.441)" fill="white"/>
<ellipse cx="293.582" cy="390.11" rx="6.66855" ry="6.66853" fill="#A5B9B4"/>
<rect width="13.3371" height="13.3371" transform="translate(303.585 383.441)" fill="white"/>
<ellipse cx="310.254" cy="390.11" rx="6.66855" ry="6.66853" fill="#A5B9B4"/>
<rect width="13.3371" height="13.3371" transform="translate(320.257 383.441)" fill="white"/>
<ellipse cx="326.925" cy="390.11" rx="6.66855" ry="6.66853" fill="#A5B9B4"/>
<rect width="13.3371" height="13.3371" transform="translate(336.928 383.441)" fill="white"/>
<ellipse cx="343.597" cy="390.11" rx="6.66855" ry="6.66853" fill="#A5B9B4"/>
<rect width="13.3371" height="13.3371" transform="translate(353.599 383.441)" fill="white"/>
<ellipse cx="360.268" cy="390.11" rx="6.66855" ry="6.66853" fill="#A5B9B4"/>
<rect width="13.3371" height="13.3371" transform="translate(370.271 383.441)" fill="white"/>
<ellipse cx="376.939" cy="390.11" rx="6.66855" ry="6.66853" fill="#A5B9B4"/>
<rect width="13.3371" height="13.3371" transform="translate(386.942 383.441)" fill="white"/>
<ellipse cx="393.611" cy="390.11" rx="6.66855" ry="6.66853" fill="#A5B9B4"/>
<rect width="13.3371" height="13.3371" transform="translate(403.614 383.441)" fill="white"/>
<ellipse cx="410.282" cy="390.11" rx="6.66855" ry="6.66853" fill="#A5B9B4"/>
<rect width="10.7253" height="10.7253" transform="translate(421.591 384.747)" fill="white"/>
<circle cx="426.953" cy="390.11" r="5.36263" fill="#A5B9B4"/>
<rect width="10.2066" height="10.2066" transform="translate(280.144 401.678)" fill="white"/>
<circle cx="285.247" cy="406.781" r="5.1033" fill="#A5B9B4"/>
<rect width="13.3371" height="13.3371" transform="translate(295.25 400.113)" fill="white"/>
<ellipse cx="301.918" cy="406.781" rx="6.66855" ry="6.66853" fill="#A5B9B4"/>
<rect width="13.3371" height="13.3371" transform="translate(311.921 400.113)" fill="white"/>
<ellipse cx="318.59" cy="406.781" rx="6.66855" ry="6.66853" fill="#A5B9B4"/>
<rect width="13.3371" height="13.3371" transform="translate(328.592 400.113)" fill="white"/>
<ellipse cx="335.261" cy="406.781" rx="6.66855" ry="6.66853" fill="#A5B9B4"/>
<rect width="13.3371" height="13.3371" transform="translate(345.264 400.113)" fill="white"/>
<ellipse cx="351.932" cy="406.781" rx="6.66855" ry="6.66853" fill="#A5B9B4"/>
<rect width="13.3371" height="13.3371" transform="translate(361.935 400.113)" fill="white"/>
<ellipse cx="368.604" cy="406.781" rx="6.66855" ry="6.66853" fill="#A5B9B4"/>
<rect width="13.3371" height="13.3371" transform="translate(378.606 400.113)" fill="white"/>
<ellipse cx="385.275" cy="406.781" rx="6.66855" ry="6.66853" fill="#A5B9B4"/>
<rect width="13.2815" height="13.2815" transform="translate(395.306 400.14)" fill="white"/>
<circle cx="401.946" cy="406.781" r="6.64077" fill="#A5B9B4"/>
<rect width="11.2995" height="11.2995" transform="translate(412.968 401.131)" fill="white"/>
<circle cx="418.618" cy="406.781" r="5.64974" fill="#A5B9B4"/>
<rect width="5.27927" height="5.27927" transform="translate(274.272 420.813)" fill="white"/>
<circle cx="276.911" cy="423.452" r="2.63964" fill="#A5B9B4"/>
<rect width="13.3371" height="13.3371" transform="translate(286.914 416.784)" fill="white"/>
<ellipse cx="293.582" cy="423.452" rx="6.66855" ry="6.66853" fill="#A5B9B4"/>
<rect width="13.3371" height="13.3371" transform="translate(303.585 416.784)" fill="white"/>
<ellipse cx="310.254" cy="423.452" rx="6.66855" ry="6.66853" fill="#A5B9B4"/>
<rect width="13.3371" height="13.3371" transform="translate(320.257 416.784)" fill="white"/>
<ellipse cx="326.925" cy="423.452" rx="6.66855" ry="6.66853" fill="#A5B9B4"/>
<rect width="13.3371" height="13.3371" transform="translate(336.928 416.784)" fill="white"/>
<ellipse cx="343.597" cy="423.452" rx="6.66855" ry="6.66853" fill="#A5B9B4"/>
<rect width="13.3371" height="13.3371" transform="translate(353.599 416.784)" fill="white"/>
<ellipse cx="360.268" cy="423.452" rx="6.66855" ry="6.66853" fill="#A5B9B4"/>
<rect width="13.3371" height="13.3371" transform="translate(370.271 416.784)" fill="white"/>
<ellipse cx="376.939" cy="423.452" rx="6.66855" ry="6.66853" fill="#A5B9B4"/>
<rect width="8.3727" height="8.3727" transform="translate(389.424 419.266)" fill="white"/>
<circle cx="393.611" cy="423.452" r="4.18635" fill="#A5B9B4"/>
<rect width="1.46339" height="1.46339" transform="translate(409.55 422.721)" fill="white"/>
<circle cx="410.282" cy="423.452" r="0.731695" fill="#A5B9B4"/>
<rect width="1.20406" height="1.20403" transform="translate(267.974 439.522)" fill="white"/>
<ellipse cx="268.576" cy="440.124" rx="0.60203" ry="0.602015" fill="#A5B9B4"/>
<rect width="12.7073" height="12.7073" transform="translate(278.893 433.77)" fill="white"/>
<circle cx="285.247" cy="440.124" r="6.35365" fill="#A5B9B4"/>
<rect width="13.3371" height="13.3371" transform="translate(295.25 433.455)" fill="white"/>
<ellipse cx="301.918" cy="440.124" rx="6.66855" ry="6.66853" fill="#A5B9B4"/>
<rect width="13.3371" height="13.3371" transform="translate(311.921 433.455)" fill="white"/>
<ellipse cx="318.59" cy="440.124" rx="6.66855" ry="6.66853" fill="#A5B9B4"/>
<rect width="13.3371" height="13.3371" transform="translate(328.592 433.455)" fill="white"/>
<ellipse cx="335.261" cy="440.124" rx="6.66855" ry="6.66853" fill="#A5B9B4"/>
<rect width="13.3371" height="13.3371" transform="translate(345.264 433.455)" fill="white"/>
<ellipse cx="351.932" cy="440.124" rx="6.66855" ry="6.66853" fill="#A5B9B4"/>
<rect width="13.3371" height="13.3371" transform="translate(361.935 433.455)" fill="white"/>
<ellipse cx="368.604" cy="440.124" rx="6.66855" ry="6.66853" fill="#A5B9B4"/>
<rect width="8.3727" height="8.3727" transform="translate(381.089 435.937)" fill="white"/>
<circle cx="385.275" cy="440.124" r="4.18635" fill="#A5B9B4"/>
<rect width="9.03956" height="9.03959" transform="translate(272.391 452.275)" fill="white"/>
<ellipse cx="276.911" cy="456.795" rx="4.51978" ry="4.51979" fill="#A5B9B4"/>
<rect width="13.3371" height="13.3371" transform="translate(286.914 450.127)" fill="white"/>
<ellipse cx="293.582" cy="456.795" rx="6.66855" ry="6.66853" fill="#A5B9B4"/>
<rect width="13.3371" height="13.3371" transform="translate(303.585 450.127)" fill="white"/>
<ellipse cx="310.254" cy="456.795" rx="6.66855" ry="6.66853" fill="#A5B9B4"/>
<rect width="13.3371" height="13.3371" transform="translate(320.257 450.127)" fill="white"/>
<ellipse cx="326.925" cy="456.795" rx="6.66855" ry="6.66853" fill="#A5B9B4"/>
<rect width="13.3371" height="13.3371" transform="translate(336.928 450.127)" fill="white"/>
<ellipse cx="343.597" cy="456.795" rx="6.66855" ry="6.66853" fill="#A5B9B4"/>
<rect width="13.3371" height="13.3371" transform="translate(353.599 450.127)" fill="white"/>
<ellipse cx="360.268" cy="456.795" rx="6.66855" ry="6.66853" fill="#A5B9B4"/>
<rect width="8.46536" height="8.46536" transform="translate(372.707 452.562)" fill="white"/>
<circle cx="376.939" cy="456.795" r="4.23268" fill="#A5B9B4"/>
<rect width="3.40839" height="3.40836" transform="translate(266.871 471.762)" fill="white"/>
<ellipse cx="268.575" cy="473.467" rx="1.70419" ry="1.70418" fill="#A5B9B4"/>
<rect width="13.3371" height="13.3371" transform="translate(278.578 466.798)" fill="white"/>
<ellipse cx="285.247" cy="473.466" rx="6.66855" ry="6.66853" fill="#A5B9B4"/>
<rect width="13.3371" height="13.3371" transform="translate(295.25 466.798)" fill="white"/>
<ellipse cx="301.918" cy="473.466" rx="6.66855" ry="6.66853" fill="#A5B9B4"/>
<rect width="13.3371" height="13.3371" transform="translate(311.921 466.798)" fill="white"/>
<ellipse cx="318.59" cy="473.466" rx="6.66855" ry="6.66853" fill="#A5B9B4"/>
<rect width="13.3371" height="13.3371" transform="translate(328.592 466.798)" fill="white"/>
<ellipse cx="335.261" cy="473.466" rx="6.66855" ry="6.66853" fill="#A5B9B4"/>
<rect width="13.1889" height="13.1889" transform="translate(345.338 466.872)" fill="white"/>
<circle cx="351.932" cy="473.466" r="6.59444" fill="#A5B9B4"/>
<rect width="5.13105" height="5.13105" transform="translate(366.038 470.901)" fill="white"/>
<circle cx="368.604" cy="473.467" r="2.56553" fill="#A5B9B4"/>
<rect width="1.40779" height="1.40782" transform="translate(259.536 489.434)" fill="white"/>
<ellipse cx="260.24" cy="490.138" rx="0.703897" ry="0.703911" fill="#A5B9B4"/>
<rect width="12.7628" height="12.7628" transform="translate(270.53 483.756)" fill="white"/>
<ellipse cx="276.911" cy="490.138" rx="6.38142" ry="6.38141" fill="#A5B9B4"/>
<rect width="13.3371" height="13.3371" transform="translate(286.914 483.469)" fill="white"/>
<ellipse cx="293.582" cy="490.138" rx="6.66855" ry="6.66853" fill="#A5B9B4"/>
<rect width="13.3371" height="13.3371" transform="translate(303.585 483.469)" fill="white"/>
<ellipse cx="310.254" cy="490.138" rx="6.66855" ry="6.66853" fill="#A5B9B4"/>
<rect width="13.3371" height="13.3371" transform="translate(320.257 483.469)" fill="white"/>
<ellipse cx="326.925" cy="490.138" rx="6.66855" ry="6.66853" fill="#A5B9B4"/>
<rect width="9.15073" height="9.15073" transform="translate(339.021 485.563)" fill="white"/>
<circle cx="343.597" cy="490.138" r="4.57536" fill="#A5B9B4"/>
<rect width="9.89169" height="9.89166" transform="translate(263.63 501.863)" fill="white"/>
<ellipse cx="268.575" cy="506.809" rx="4.94585" ry="4.94583" fill="#A5B9B4"/>
<rect width="13.3371" height="13.3371" transform="translate(278.578 500.141)" fill="white"/>
<ellipse cx="285.247" cy="506.809" rx="6.66855" ry="6.66853" fill="#A5B9B4"/>
<rect width="13.3371" height="13.3371" transform="translate(295.25 500.141)" fill="white"/>
<ellipse cx="301.918" cy="506.809" rx="6.66855" ry="6.66853" fill="#A5B9B4"/>
<rect width="11.4476" height="11.4476" transform="translate(312.866 501.085)" fill="white"/>
<circle cx="318.59" cy="506.809" r="5.72382" fill="#A5B9B4"/>
<rect width="6.4833" height="6.4833" transform="translate(332.019 503.568)" fill="white"/>
<circle cx="335.261" cy="506.809" r="3.24165" fill="#A5B9B4"/>
<rect width="4.70501" height="4.70504" transform="translate(257.887 521.128)" fill="white"/>
<ellipse cx="260.24" cy="523.481" rx="2.35251" ry="2.35252" fill="#A5B9B4"/>
<rect width="13.1889" height="13.1889" transform="translate(270.317 516.886)" fill="white"/>
<circle cx="276.911" cy="523.48" r="6.59444" fill="#A5B9B4"/>
<rect width="13.3371" height="13.3371" transform="translate(286.914 516.812)" fill="white"/>
<ellipse cx="293.582" cy="523.48" rx="6.66855" ry="6.66853" fill="#A5B9B4"/>
<rect width="9.00256" height="9.00256" transform="translate(305.753 518.979)" fill="white"/>
<circle cx="310.254" cy="523.481" r="4.50128" fill="#A5B9B4"/>
<rect width="9.98429" height="9.98426" transform="translate(263.583 535.16)" fill="white"/>
<ellipse cx="268.576" cy="540.152" rx="4.99214" ry="4.99213" fill="#A5B9B4"/>
<rect width="13.3371" height="13.3371" transform="translate(278.578 533.483)" fill="white"/>
<ellipse cx="285.247" cy="540.152" rx="6.66855" ry="6.66853" fill="#A5B9B4"/>
<rect width="9.63236" height="9.6323" transform="translate(297.102 535.336)" fill="white"/>
<ellipse cx="301.918" cy="540.152" rx="4.81618" ry="4.81615" fill="#A5B9B4"/>
<rect width="8.78026" height="8.78023" transform="translate(255.85 552.433)" fill="white"/>
<ellipse cx="260.24" cy="556.823" rx="4.39013" ry="4.39011" fill="#A5B9B4"/>
<rect width="13.3371" height="13.3371" transform="translate(270.243 550.155)" fill="white"/>
<ellipse cx="276.911" cy="556.823" rx="6.66854" ry="6.66853" fill="#A5B9B4"/>
<rect width="10.5215" height="10.5215" transform="translate(288.322 551.562)" fill="white"/>
<circle cx="293.583" cy="556.823" r="5.26073" fill="#A5B9B4"/>
<rect width="2.92675" height="2.92672" transform="translate(250.441 572.031)" fill="white"/>
<ellipse cx="251.904" cy="573.494" rx="1.46338" ry="1.46336" fill="#A5B9B4"/>
<rect width="13.2259" height="13.2259" transform="translate(261.963 566.882)" fill="white"/>
<ellipse cx="268.576" cy="573.495" rx="6.61297" ry="6.61296" fill="#A5B9B4"/>
<rect width="12.7073" height="12.7073" transform="translate(278.893 567.141)" fill="white"/>
<circle cx="285.247" cy="573.495" r="6.35365" fill="#A5B9B4"/>
<rect width="2.51926" height="2.51926" transform="translate(300.659 572.235)" fill="white"/>
<circle cx="301.918" cy="573.495" r="1.25963" fill="#A5B9B4"/>
<rect width="6.65004" height="6.65001" transform="translate(256.915 586.841)" fill="white"/>
<ellipse cx="260.24" cy="590.166" rx="3.32502" ry="3.32501" fill="#A5B9B4"/>
<rect width="13.2815" height="13.2815" transform="translate(270.27 583.525)" fill="white"/>
<circle cx="276.911" cy="590.166" r="6.64077" fill="#A5B9B4"/>
<rect width="2.40806" height="2.40812" transform="translate(292.378 588.962)" fill="white"/>
<ellipse cx="293.583" cy="590.166" rx="1.20403" ry="1.20406" fill="#A5B9B4"/>
<rect width="2.61185" height="2.61185" transform="translate(325.619 588.86)" fill="white"/>
<circle cx="326.925" cy="590.166" r="1.30593" fill="#A5B9B4"/>
<rect width="1.72269" height="1.72269" transform="translate(342.735 589.305)" fill="white"/>
<circle cx="343.597" cy="590.166" r="0.861347" fill="#A5B9B4"/>
<rect width="7.428" height="7.42803" transform="translate(264.862 603.123)" fill="white"/>
<ellipse cx="268.576" cy="606.837" rx="3.714" ry="3.71402" fill="#A5B9B4"/>
<rect width="12.0219" height="12.0219" transform="translate(279.236 600.826)" fill="white"/>
<circle cx="285.247" cy="606.837" r="6.01094" fill="#A5B9B4"/>
<rect width="3.18608" height="3.18608" transform="translate(300.325 605.244)" fill="white"/>
<circle cx="301.918" cy="606.837" r="1.59304" fill="#A5B9B4"/>
<rect width="2.24136" height="2.24136" transform="translate(292.462 622.388)" fill="white"/>
<circle cx="293.583" cy="623.509" r="1.12068" fill="#A5B9B4"/>
</g>
</svg>
