<svg width="209" height="812" viewBox="0 0 209 812" fill="none" xmlns="http://www.w3.org/2000/svg">
<g opacity="0.6" clip-path="url(#clip0_1710_9697)">
<path d="M45.7454 472.866C-1.47296 566.833 315.196 661.551 129.168 811.011C162.712 722.457 -103.375 672.342 45.7454 472.866Z" fill="url(#paint0_linear_1710_9697)"/>
<path d="M221.161 710.714C268.38 616.764 -56.5582 510.002 137.052 374.006C103.509 462.576 367.235 518.973 221.161 710.714Z" fill="url(#paint1_linear_1710_9697)"/>
</g>
<g opacity="0.6" clip-path="url(#clip1_1710_9697)">
<path d="M71.1444 6.86081C23.926 100.827 340.595 195.545 154.567 345.006C188.111 256.452 -77.9758 206.337 71.1444 6.86081Z" fill="url(#paint2_linear_1710_9697)"/>
<path d="M246.56 244.708C293.778 150.759 -31.1593 43.9963 162.451 -92C128.908 -3.42953 392.634 52.9669 246.56 244.708Z" fill="url(#paint3_linear_1710_9697)"/>
</g>
<defs>
<linearGradient id="paint0_linear_1710_9697" x1="94.1468" y1="472.866" x2="94.1468" y2="811.011" gradientUnits="userSpaceOnUse">
<stop stop-color="#1E5B44"/>
<stop offset="0.630208" stop-color="#1E5B44" stop-opacity="0"/>
</linearGradient>
<linearGradient id="paint1_linear_1710_9697" x1="170.251" y1="374.006" x2="170.251" y2="710.714" gradientUnits="userSpaceOnUse">
<stop stop-color="#1E5B44"/>
<stop offset="0.630208" stop-color="#1E5B44" stop-opacity="0"/>
</linearGradient>
<linearGradient id="paint2_linear_1710_9697" x1="119.546" y1="6.86081" x2="119.546" y2="345.006" gradientUnits="userSpaceOnUse">
<stop offset="0.286458" stop-color="#1E5B44" stop-opacity="0"/>
<stop offset="1" stop-color="#1E5B44"/>
</linearGradient>
<linearGradient id="paint3_linear_1710_9697" x1="195.65" y1="-92" x2="195.65" y2="244.708" gradientUnits="userSpaceOnUse">
<stop offset="0.286458" stop-color="#1E5B44" stop-opacity="0"/>
<stop offset="1" stop-color="#1E5B44"/>
</linearGradient>
<clipPath id="clip0_1710_9697">
<rect width="265.601" height="437.006" fill="white" transform="translate(0 374.006)"/>
</clipPath>
<clipPath id="clip1_1710_9697">
<rect width="265.601" height="437.006" fill="white" transform="translate(25.399 -92)"/>
</clipPath>
</defs>
</svg>
