<svg width="181" height="74" viewBox="0 0 181 74" fill="none" xmlns="http://www.w3.org/2000/svg">
<path d="M104.048 9.92119C104.038 9.90313 104.009 9.90758 104.006 9.92952C103.696 13.1641 102.352 16.4424 97.117 22.158C96.5318 22.7958 96.0404 23.4411 95.6386 24.0953C95.6338 24.1028 95.6338 24.1111 95.6386 24.1186C96.8229 25.672 97.7455 27.2569 98.4602 28.7825C98.4663 28.7997 98.4895 28.7961 98.4956 28.7794C98.9253 27.5241 99.592 26.3232 100.505 25.1906L102.717 22.5699C106.413 17.8808 106.362 14.1414 104.048 9.92174" fill="#1B3B2F"/>
<path d="M93.6599 21.8296C93.6691 21.8393 93.683 21.8379 93.6905 21.8282C94.074 21.284 94.5037 20.7496 94.9843 20.2231C103.438 10.9968 101.893 7.02324 101.065 4.88729C100.448 3.30193 99.4222 1.55322 98.415 0.0242472C98.3807 -0.0277001 98.3001 0.0114687 98.3216 0.0698052C99.0477 2.02297 99.7478 6.20764 95.3122 10.9143L88.6758 17.7377C88.5927 17.8297 88.5927 17.925 88.7051 17.9713C90.4917 19.0689 92.192 20.3459 93.6596 21.8296" fill="#1B3B2F"/>
<path d="M107.732 18.3569C107.724 18.333 107.692 18.3375 107.69 18.3622C107.619 20.3242 106.597 22.0796 104.55 24.7042L102.756 26.9843C100.872 29.3236 100.347 31.976 101.165 34.9225C101.169 34.9398 101.194 34.9459 101.203 34.9286C101.939 33.6688 103.051 32.0652 104.736 30.0659L106.236 28.2199C108.803 25.0084 108.96 22.0971 107.732 18.3572" fill="#1B3B2F"/>
<path d="M82.9813 21.4443C84.3889 22.3172 92.2699 27.421 97.7158 35.7012C98.0252 36.1721 98.321 36.6377 98.606 37.0966C98.6336 37.1394 98.6752 37.1377 98.6707 37.093C98.3612 34.4503 97.1783 28.6869 92.6458 23.7103C86.3697 16.8194 74.1968 14.3214 72.5796 14.0167C72.5272 14.0061 72.5043 14.072 72.5442 14.1059C79.9644 20.4607 76.8241 27.3808 82.2284 33.6728C85.9478 37.9997 90.8609 37.8388 96.9012 37.7188C96.9397 37.7174 96.9659 37.6777 96.9489 37.6441C94.343 32.5019 88.0469 25.9032 82.9568 21.4804C82.9353 21.4618 82.952 21.4279 82.9813 21.4446" fill="#1B3B2F"/>
<path d="M20.8814 49.43L16.5528 63.2099L12.4288 49.43H7.86379L0 72.6692H5.31442L10.0129 58.7262L14.164 72.6692H18.7394L23.2066 58.6991L27.7095 72.6692H33.0187L25.4438 49.43H20.8814Z" fill="#1B3B2F"/>
<path d="M48.2633 48.7614C40.597 48.7614 35.2424 53.8144 35.2424 61.0492C35.2424 68.2841 40.7188 73.3378 48.2633 73.3378C55.8077 73.3378 61.2847 68.2848 61.2847 61.0492C61.2847 53.8137 55.8084 48.7614 48.2633 48.7614ZM56.2909 61.0492C56.2909 64.4291 53.7791 68.0668 48.2633 68.0668C42.7474 68.0668 40.2349 64.5361 40.2349 61.0492C40.2349 57.5624 42.9922 54.0323 48.2633 54.0323C53.5343 54.0323 56.2909 57.5624 56.2909 61.0492Z" fill="#1B3B2F"/>
<path d="M87.9643 56.4527C87.9643 51.9239 84.9829 49.43 79.5694 49.43H66.4326V72.6692H71.4258V63.8101H77.2053L82.9498 72.6692H89.0984L83.0955 63.4465C86.3282 62.4942 87.9649 60.1459 87.9649 56.4527H87.9643ZM82.9705 56.5366C82.9705 57.5269 82.6078 58.5392 79.9152 58.5392H71.4251V54.6996H79.7235C82.4853 54.6996 82.9705 54.975 82.9705 56.5359V56.5366Z" fill="#1B3B2F"/>
<path d="M115.16 56.4527C115.16 51.9239 112.179 49.43 106.765 49.43H93.6279V72.6692H98.6211V63.8101H104.401L110.146 72.6692H116.294L110.291 63.4465C113.523 62.4942 115.16 60.1459 115.16 56.4527ZM110.166 56.5366C110.166 57.5269 109.804 58.5392 107.111 58.5392H98.6204V54.6996H106.919C109.681 54.6996 110.166 54.975 110.166 56.5359L110.166 56.5366Z" fill="#1B3B2F"/>
<path d="M132.705 48.7614C125.038 48.7614 119.683 53.8144 119.683 61.0492C119.683 68.2841 125.159 73.3378 132.705 73.3378C140.25 73.3378 145.726 68.2848 145.726 61.0492C145.726 53.8137 140.25 48.7614 132.705 48.7614ZM132.705 68.0668C127.434 68.0668 124.676 64.5361 124.676 61.0492C124.676 57.5624 127.434 54.0323 132.705 54.0323C137.976 54.0323 140.732 57.5624 140.732 61.0492C140.732 64.5361 138.22 68.0668 132.705 68.0668Z" fill="#1B3B2F"/>
<path d="M175.687 49.43L170.987 63.3736L166.836 49.43H162.261L157.793 63.3994L153.29 49.43H147.983L155.556 72.6692H160.119L164.448 58.8887L168.573 72.6692H173.136L181 49.43H175.687Z" fill="#1B3B2F"/>
</svg>
