<svg width="87" height="84" viewBox="0 0 87 84" fill="none" xmlns="http://www.w3.org/2000/svg">
<mask id="mask0_4_18089" style="mask-type:luminance" maskUnits="userSpaceOnUse" x="0" y="17" width="86" height="67">
<path d="M0 17.0723H85.7218V83.2508H0V17.0723Z" fill="white"/>
</mask>
<g mask="url(#mask0_4_18089)">
<path fill-rule="evenodd" clip-rule="evenodd" d="M44.1192 47.3166C43.6856 47.2866 41.842 47.2002 41.4899 46.9637C41.8975 46.1134 43.278 44.5011 44.6603 45.1749C44.688 45.7324 44.2822 46.8173 44.1192 47.3166ZM43.278 18.0443C43.3335 17.575 43.4688 17.4286 43.5763 17.0776C42.0865 17.1659 39.3221 18.72 38.3734 19.3939C37.6155 19.9213 36.8559 20.5389 36.2593 21.1245C35.2568 22.0931 35.1493 22.5041 34.3082 22.8551C32.8184 23.4708 31.4639 25.3478 30.8135 26.9621C29.8909 29.2483 29.6481 31.5364 29.6481 34.1774C29.6481 38.6353 31.3546 44.5311 35.7182 41.0699C37.9936 39.281 40.217 35.7015 41.5715 32.1821C41.5437 34.9395 39.5666 39.4556 38.4011 40.8934C37.1004 42.4776 34.851 44.3547 32.5738 43.5625C31.9512 43.358 31.6807 43.0933 31.2731 42.6522L30.8395 42.3012C30.8395 46.0853 30.2169 48.608 28.9699 51.4817C28.3733 52.8013 27.7767 53.8862 27.0466 55.0594C24.2266 59.6938 20.4874 63.5661 18.1843 67.613C14.9584 73.2159 19.3757 70.2521 11.7066 72.9512C8.07496 74.2126 1.68055 77.2928 0 80.3711C0.352065 80.1665 0.73188 79.8437 1.13771 79.579C2.43844 78.7287 3.46862 78.2595 4.93238 77.702C9.18665 76.0896 12.8721 75.7668 17.2633 75.0929C19.5925 74.74 21.8697 74.7982 24.2266 74.6237C24.2266 68.7861 25.366 66.147 27.886 61.5708C28.8069 59.9284 29.7556 58.4906 30.6765 56.8482C31.5992 55.1776 32.2755 53.7398 33.0612 51.8046L33.441 54.2091C33.7931 52.1556 33.8208 51.1889 34.4712 49.3401C35.04 47.6395 37.9676 42.0084 39.4313 42.975C39.8094 43.2097 40.217 44.3246 40.3783 45.0004C40.6505 46.0552 40.569 46.5545 40.6505 47.6395C43.6578 47.6695 46.0425 48.2551 46.4761 51.1889C51.2194 51.8628 49.2406 52.9477 48.9163 53.8581C49.2683 53.8862 49.2406 53.828 49.5389 54.0045C49.7279 57.2011 47.7508 58.4042 45.9888 59.6055C43.7393 61.1316 42.3571 61.9237 42.3033 65.002C42.0328 64.9438 40.2707 63.155 39.0515 63.0968C39.4313 63.3596 40.6505 64.651 41.0286 65.0621C44.9048 69.49 47.8046 74.4773 49.7557 80.2848C49.9447 80.8122 50.5153 83.0121 50.7043 83.335C51.1379 82.4828 51.0287 80.4012 50.9749 79.2862C52.3849 79.4326 54.173 79.9319 55.7443 80.1665C63.3874 81.3097 72.0052 81.0168 79.0777 77.6738C81.0028 76.7935 84.3899 74.7982 85.6369 73.244C84.6882 73.5387 83.495 74.1826 82.411 74.5636C75.8796 76.8817 68.5088 77.0863 61.7068 76.0014C59.0776 75.5903 57.9399 75.1811 55.8795 74.7982C55.9888 74.329 56.2333 73.8897 56.3686 73.4205C56.5316 72.9813 56.6114 72.4519 56.7207 71.8963C57.1005 72.3055 57.1005 72.6002 57.8324 72.7466C57.5601 71.1624 56.4501 65.7941 57.3433 64.2399C58.0492 65.4131 58.2382 66.3516 58.5903 67.9358C58.8886 66.0287 58.292 63.4779 57.7231 61.7172C57.5341 61.1316 57.2358 60.5159 57.1005 59.9866C57.5601 60.3395 57.7231 60.8969 58.0752 61.1898C58.0214 59.2827 57.1265 57.5239 56.4501 56.2625C53.2781 50.485 52.0866 48.7826 52.4109 40.6888C51.7068 40.9234 48.807 44.0318 48.5902 44.4429C48.8348 43.3279 50.7043 41.1862 51.3547 40.6006C52.5739 39.4856 53.6041 38.7517 55.0939 37.8714C58.455 35.7898 61.5715 35.1159 61.7068 31.3618C63.3596 30.1587 63.5226 26.9902 62.926 25.406C62.5462 24.3511 62.2219 24.4093 61.8698 23.9119C63.0076 23.3244 63.0076 22.1212 61.8698 21.5056C59.0776 20.0096 53.8747 23.6773 51.7883 22.5623C52.0328 22.0048 52.3849 22.0048 53.089 21.8284C52.5202 21.0945 51.5438 20.156 50.6506 19.5403C48.8608 18.309 48.2104 18.5436 47.4248 18.1325C47.8323 17.7815 47.7231 17.9279 48.2104 17.7215C48.2104 17.7215 48.3734 17.7215 48.4827 17.5751L46.6929 17.3705C45.2031 17.2822 43.7671 18.0443 43.278 18.0443Z" fill="#1B3B2F"/>
</g>
<path fill-rule="evenodd" clip-rule="evenodd" d="M4.55078 82.366C5.93303 81.9549 7.20601 81.3693 8.77903 80.9282C13.7652 79.6086 18.9144 79.2576 23.9543 80.2543C30.0244 81.4856 37.9658 82.5424 44.4694 81.632C44.0359 81.4274 39.9706 81.0464 39.0757 80.9282C33.9283 80.1661 28.4253 78.6119 23.8467 77.9362C19.7277 77.3505 16.6372 77.4669 12.8165 78.3773C10.6486 78.8747 8.10092 79.9014 6.23133 81.1046C5.5272 81.5739 5.09362 81.9549 4.55078 82.366Z" fill="#1B3B2F"/>
<path fill-rule="evenodd" clip-rule="evenodd" d="M44.1175 47.3159C44.2805 46.8166 44.6864 45.7317 44.6586 45.1742C43.2764 44.5003 41.8958 46.1127 41.4883 46.963C41.8403 47.1995 43.6839 47.2859 44.1175 47.3159Z" fill="#1E1E1E"/>
<mask id="mask1_4_18089" style="mask-type:luminance" maskUnits="userSpaceOnUse" x="4" y="0" width="83" height="74">
<path d="M4.03125 0H86.5793V73.773H4.03125V0Z" fill="white"/>
</mask>
<g mask="url(#mask1_4_18089)">
<path fill-rule="evenodd" clip-rule="evenodd" d="M5.36868 40.6283C4.55529 37.3736 4.14946 33.9423 4.23098 30.5393C4.3385 24.2043 6.12658 17.9557 9.70446 12.8539C11.4925 10.3011 13.6604 8.13129 16.1544 6.4307C23.3362 1.50161 31.5204 1.85449 38.8634 6.10785C39.4601 6.45885 40.0289 6.81173 40.5978 7.19277C40.9776 7.4274 41.3574 7.69018 41.7372 7.95484C41.9002 8.0731 42.4951 8.45413 42.6859 8.45413C42.9287 8.4241 43.7143 7.51562 43.9051 7.33918C47.6443 3.35049 51.954 0.563095 57.32 0.270278C62.3061 0.00561675 67.0477 1.53164 71.276 4.31716C75.0152 6.7817 78.3485 10.2429 80.8425 14.1434C81.3298 14.9055 81.8171 15.6976 82.2507 16.5197C82.6843 17.34 83.0919 18.1621 83.4977 19.0124C83.6885 19.4235 83.8498 19.8045 84.0405 20.2156C85.8824 24.6435 86.642 29.5426 86.5327 34.3816C86.4512 38.0474 85.8824 41.7433 84.8539 45.2627C84.0666 47.9319 83.1456 50.4846 81.9264 52.9773C81.0315 54.8243 80.0291 56.6131 78.9989 58.3738C75.5303 64.3859 70.8147 70.6346 64.8799 73.773C73.2271 65.0617 83.3624 44.3542 82.4675 31.6824C82.197 27.6937 81.1945 23.7632 79.5955 20.1856C78.241 17.2236 76.4529 14.3499 74.2833 12.0017C71.3298 8.86333 67.4553 6.60526 63.4161 5.57852C57.2922 4.02434 51.0314 5.31574 46.2898 9.97828C45.6394 10.594 45.1243 11.2978 44.5815 12.0017C44.2034 12.531 43.7143 13.1749 43.064 13.3232C42.6859 13.3813 42.3338 13.2631 41.98 13.0585C41.791 12.9402 41.6019 12.7657 41.4112 12.6193C41.1406 12.3546 40.87 12.12 40.5978 11.8553C39.8121 11.2115 39.0005 10.5658 38.1593 10.0365C31.4111 5.75496 24.5554 5.52034 17.6441 9.45084C7.48281 15.2584 5.31492 28.0166 7.15676 39.3388C7.61809 42.2125 8.89107 48.3429 9.5952 51.2167C7.72561 47.8155 6.31735 44.4706 5.36868 40.6283Z" fill="#1B3B2F"/>
</g>
</svg>
