<svg width="100" height="100" viewBox="0 0 100 100" fill="none" xmlns="http://www.w3.org/2000/svg">
<mask id="mask0_4_18089" style="mask-type:luminance" maskUnits="userSpaceOnUse" x="6" y="17" width="87" height="67">
<path d="M6.68359 17.0723H92.4054V83.2508H6.68359V17.0723Z" fill="white"/>
</mask>
<g mask="url(#mask0_4_18089)">
<path fill-rule="evenodd" clip-rule="evenodd" d="M50.8028 47.3166C50.3692 47.2866 48.5256 47.2002 48.1735 46.9637C48.5811 46.1134 49.9616 44.5011 51.3439 45.1749C51.3716 45.7324 50.9658 46.8173 50.8028 47.3166ZM49.9616 18.0443C50.0171 17.575 50.1524 17.4286 50.2599 17.0776C48.7701 17.1659 46.0056 18.72 45.057 19.3939C44.2991 19.9213 43.5395 20.5389 42.9429 21.1245C41.9404 22.0931 41.8329 22.5041 40.9918 22.8551C39.502 23.4708 38.1475 25.3478 37.4971 26.9621C36.5745 29.2483 36.3317 31.5364 36.3317 34.1774C36.3317 38.6353 38.0382 44.5311 42.4017 41.0699C44.6772 39.281 46.9006 35.7015 48.2551 32.1821C48.2273 34.9395 46.2502 39.4556 45.0847 40.8934C43.784 42.4776 41.5346 44.3547 39.2574 43.5625C38.6348 43.358 38.3643 43.0933 37.9567 42.6522L37.5231 42.3012C37.5231 46.0853 36.9005 48.608 35.6535 51.4817C35.0569 52.8013 34.4603 53.8862 33.7302 55.0594C30.9102 59.6938 27.171 63.5661 24.8679 67.613C21.642 73.2159 26.0593 70.2521 18.3902 72.9512C14.7585 74.2126 8.36414 77.2928 6.68359 80.3711C7.03566 80.1665 7.41547 79.8437 7.8213 79.579C9.12204 78.7287 10.1522 78.2595 11.616 77.702C15.8702 76.0896 19.5557 75.7668 23.9469 75.0929C26.2761 74.74 28.5533 74.7982 30.9102 74.6237C30.9102 68.7861 32.0496 66.147 34.5696 61.5708C35.4905 59.9284 36.4392 58.4906 37.3601 56.8482C38.2828 55.1776 38.9591 53.7398 39.7448 51.8046L40.1246 54.2091C40.4767 52.1556 40.5044 51.1889 41.1548 49.3401C41.7236 47.6395 44.6511 42.0084 46.1149 42.975C46.493 43.2097 46.9006 44.3246 47.0618 45.0004C47.3341 46.0552 47.2526 46.5545 47.3341 47.6395C50.3414 47.6695 52.7261 48.2551 53.1597 51.1889C57.903 51.8628 55.9242 52.9477 55.5999 53.8581C55.9519 53.8862 55.9242 53.828 56.2225 54.0045C56.4115 57.2011 54.4344 58.4042 52.6723 59.6055C50.4229 61.1316 49.0407 61.9237 48.9869 65.002C48.7164 64.9438 46.9543 63.155 45.7351 63.0968C46.1149 63.3596 47.3341 64.651 47.7122 65.0621C51.5884 69.49 54.4882 74.4773 56.4393 80.2848C56.6283 80.8122 57.1989 83.0121 57.3879 83.335C57.8215 82.4828 57.7123 80.4012 57.6585 79.2862C59.0685 79.4326 60.8566 79.9319 62.4278 80.1665C70.071 81.3097 78.6888 81.0168 85.7613 77.6738C87.6864 76.7935 91.0735 74.7982 92.3204 73.244C91.3718 73.5387 90.1786 74.1826 89.0946 74.5636C82.5632 76.8817 75.1924 77.0863 68.3904 76.0014C65.7612 75.5903 64.6235 75.1811 62.5631 74.7982C62.6724 74.329 62.9169 73.8897 63.0522 73.4205C63.2152 72.9813 63.295 72.4519 63.4043 71.8963C63.7841 72.3055 63.7841 72.6002 64.516 72.7466C64.2437 71.1624 63.1337 65.7941 64.0269 64.2399C64.7327 65.4131 64.9218 66.3516 65.2739 67.9358C65.5722 66.0287 64.9756 63.4779 64.4067 61.7172C64.2177 61.1316 63.9194 60.5159 63.7841 59.9866C64.2437 60.3395 64.4067 60.8969 64.7588 61.1898C64.705 59.2827 63.8101 57.5239 63.1337 56.2625C59.9617 50.485 58.7702 48.7826 59.0945 40.6888C58.3904 40.9234 55.4906 44.0318 55.2738 44.4429C55.5183 43.3279 57.3879 41.1862 58.0383 40.6006C59.2575 39.4856 60.2877 38.7517 61.7775 37.8714C65.1386 35.7898 68.2551 35.1159 68.3904 31.3618C70.0432 30.1587 70.2062 26.9902 69.6096 25.406C69.2298 24.3511 68.9055 24.4093 68.5534 23.9119C69.6911 23.3244 69.6911 22.1212 68.5534 21.5056C65.7612 20.0096 60.5583 23.6773 58.4719 22.5623C58.7164 22.0048 59.0685 22.0048 59.7726 21.8284C59.2038 21.0945 58.2273 20.156 57.3342 19.5403C55.5444 18.309 54.894 18.5436 54.1084 18.1325C54.5159 17.7815 54.4067 17.9279 54.894 17.7215C54.894 17.7215 55.057 17.7215 55.1663 17.5751L53.3765 17.3705C51.8867 17.2822 50.4507 18.0443 49.9616 18.0443Z" fill="#FFFBFB"/>
</g>
<path fill-rule="evenodd" clip-rule="evenodd" d="M11.2344 82.366C12.6166 81.9549 13.8896 81.3693 15.4626 80.9282C20.4488 79.6086 25.5979 79.2576 30.6379 80.2543C36.708 81.4856 44.6494 82.5424 51.153 81.632C50.7195 81.4274 46.6542 81.0464 45.7593 80.9282C40.6119 80.1661 35.1089 78.6119 30.5303 77.9362C26.4113 77.3505 23.3208 77.4669 19.5001 78.3773C17.3322 78.8747 14.7845 79.9014 12.9149 81.1046C12.2108 81.5739 11.7772 81.9549 11.2344 82.366Z" fill="#FFFBFB"/>
<path fill-rule="evenodd" clip-rule="evenodd" d="M50.8011 47.3159C50.9641 46.8166 51.3699 45.7317 51.3422 45.1742C49.96 44.5003 48.5794 46.1127 48.1719 46.963C48.5239 47.1995 50.3675 47.2859 50.8011 47.3159Z" fill="#1E1E1E"/>
<mask id="mask1_4_18089" style="mask-type:luminance" maskUnits="userSpaceOnUse" x="10" y="0" width="84" height="74">
<path d="M10.7148 0H93.2629V73.773H10.7148V0Z" fill="white"/>
</mask>
<g mask="url(#mask1_4_18089)">
<path fill-rule="evenodd" clip-rule="evenodd" d="M12.0523 40.6283C11.2389 37.3736 10.8331 33.9423 10.9146 30.5393C11.0221 24.2043 12.8102 17.9557 16.3881 12.8539C18.1761 10.3011 20.344 8.13129 22.838 6.4307C30.0197 1.50161 38.204 1.85449 45.547 6.10785C46.1436 6.45885 46.7125 6.81173 47.2814 7.19277C47.6612 7.4274 48.041 7.69018 48.4208 7.95484C48.5838 8.0731 49.1787 8.45413 49.3695 8.45413C49.6123 8.4241 50.3979 7.51562 50.5887 7.33918C54.3279 3.35049 58.6376 0.563095 64.0036 0.270278C68.9897 0.00561675 73.7313 1.53164 77.9596 4.31716C81.6988 6.7817 85.0321 10.2429 87.5261 14.1434C88.0134 14.9055 88.5007 15.6976 88.9343 16.5197C89.3679 17.34 89.7755 18.1621 90.1813 19.0124C90.3721 19.4235 90.5334 19.8045 90.7241 20.2156C92.566 24.6435 93.3256 29.5426 93.2163 34.3816C93.1348 38.0474 92.566 41.7433 91.5375 45.2627C90.7501 47.9319 89.8292 50.4846 88.61 52.9773C87.7151 54.8243 86.7127 56.6131 85.6825 58.3738C82.2139 64.3859 77.4983 70.6346 71.5634 73.773C79.9107 65.0617 90.046 44.3542 89.1511 31.6824C88.8806 27.6937 87.8781 23.7632 86.2791 20.1856C84.9246 17.2236 83.1365 14.3499 80.9669 12.0017C78.0134 8.86333 74.1389 6.60526 70.0997 5.57852C63.9758 4.02434 57.715 5.31574 52.9734 9.97828C52.323 10.594 51.8079 11.2978 51.2651 12.0017C50.887 12.531 50.3979 13.1749 49.7475 13.3232C49.3695 13.3813 49.0174 13.2631 48.6636 13.0585C48.4746 12.9402 48.2855 12.7657 48.0947 12.6193C47.8242 12.3546 47.5536 12.12 47.2814 11.8553C46.4957 11.2115 45.6841 10.5658 44.8429 10.0365C38.0947 5.75496 31.239 5.52034 24.3277 9.45084C14.1664 15.2584 11.9985 28.0166 13.8404 39.3388C14.3017 42.2125 15.5747 48.3429 16.2788 51.2167C14.4092 47.8155 13.0009 44.4706 12.0523 40.6283Z" fill="#FFFBFB"/>
</g>
<path d="M0 97.9007C0.280959 98.9087 2.02568 99.9992 3.84497 99.9992C6.27127 99.9992 8.12352 98.6628 8.12352 96.3653C8.12352 92.3898 2.97781 93.6455 2.97781 91.7816C2.97781 91.0195 3.83456 90.7136 4.52829 90.7136C5.50297 90.7136 6.36839 91.2542 6.98581 91.8623C7.35522 91.0777 7.83042 90.4095 8.19983 89.7995C7.54946 89.2026 6.54182 88.3335 4.47279 88.3335C2.33959 88.3335 0.206383 89.6362 0.206383 91.8511C0.206383 95.8717 5.45961 94.8637 5.45961 96.5868C5.45961 97.3845 4.71212 97.7018 3.91087 97.7018C2.80438 97.7018 1.79848 96.8928 1.23483 95.9186C0.92092 96.6112 0.464796 97.2907 0 97.9007Z" fill="#FFFBFB"/>
<path d="M13.9699 100C15.5082 100 16.8731 99.531 17.7073 98.5343C17.3379 97.5732 17.0032 96.3306 17.0032 96.3306C17.0032 96.3306 16.2453 97.7497 14.3705 97.7497C12.7021 97.7497 11.2297 96.5653 11.2297 94.1739C11.2297 91.7582 12.7021 90.5738 14.3705 90.5738C16.2453 90.5738 17.0032 91.9928 17.0032 91.9928C17.0032 91.9928 17.3379 90.7502 17.7073 89.7892C16.8731 88.7925 15.5082 88.3345 13.9699 88.3345C10.8186 88.3345 8.79297 90.9492 8.79297 94.1608C8.79297 97.3743 10.8186 100 13.9699 100Z" fill="#FFFBFB"/>
<path d="M18.3056 89.9767V98.3576C18.3056 98.9452 18.1755 99.589 17.9258 99.8236H21.1204C20.8724 99.589 20.7423 98.9564 20.7423 98.3708V93.5055L22.4749 98.7105C22.6813 99.2492 22.6379 99.6246 22.4749 99.8236H26.0493C25.6487 99.6002 25.118 98.78 24.511 97.0456L23.8935 95.2756C25.1717 94.8532 26.0822 93.7514 26.0822 92.1222C26.0822 89.7533 24.1641 88.5107 22.4541 88.5107H17.9258C18.1755 88.7454 18.3056 89.3892 18.3056 89.9767ZM20.7423 93.5055V90.7388H22.3119C23.1998 90.7388 23.6664 91.3939 23.6664 92.1222C23.6664 92.766 23.2224 93.5055 22.291 93.5055H20.7423Z" fill="#FFFBFB"/>
<path d="M29.7637 88.5107C30.0134 88.7454 30.1435 89.3779 30.1435 89.9654V98.3708C30.1435 98.9564 30.0134 99.589 29.7637 99.8236H32.9583C32.7103 99.589 32.5802 98.9452 32.5802 98.3576V93.8678L35.5268 99.8236H38.3416C38.0936 99.589 37.9635 98.9564 37.9635 98.3708V89.9654C37.9635 89.3779 38.0936 88.7454 38.3416 88.5107H35.147C35.3967 88.7454 35.5268 89.3892 35.5268 89.9767V94.4666L32.5802 88.5107H29.7637Z" fill="#FFFBFB"/>
<path d="M41.9661 99.8236C41.7181 99.589 41.588 98.9452 41.588 98.3576V95.1235H44.4253V98.3708C44.4253 98.9564 44.2953 99.589 44.0455 99.8236H47.2419C46.9921 99.589 46.862 98.9452 46.862 98.3576V89.9767C46.862 89.3892 46.9921 88.7454 47.2419 88.5107H44.0455C44.2953 88.7454 44.4253 89.3779 44.4253 89.9654V93.0119H41.588V89.9767C41.588 89.3892 41.7181 88.7454 41.9661 88.5107H38.7715C39.0212 88.7454 39.1513 89.3779 39.1513 89.9654V98.3708C39.1513 98.9564 39.0212 99.589 38.7715 99.8236H41.9661Z" fill="#FFFBFB"/>
<path d="M48.5958 99.8238H51.5961C50.9128 98.8515 50.5018 97.7834 50.3388 96.447H53.242V98.371C53.242 98.9566 53.1119 99.5892 52.8639 99.8238H56.0585C55.8088 99.5892 55.6787 98.9453 55.6787 98.3578V89.3668C55.3648 88.7343 54.293 88.3345 53.2854 88.3345C49.7647 88.3345 47.8379 91.8051 47.8379 95.0298C47.8379 96.9407 48.0755 98.1589 48.5958 99.8238ZM50.3509 94.2208C50.566 92.6723 51.3568 90.7502 53.2524 90.7502L53.242 94.2208H50.3509Z" fill="#FFFBFB"/>
<path d="M56.3809 88.5107V91.3939C56.9116 90.8552 57.7354 90.7388 58.2661 90.7388H59.0448V98.3576C59.0448 98.9452 58.9147 99.589 58.6667 99.8236H61.8613C61.6115 99.589 61.4832 98.9564 61.4832 98.3708V90.7388H62.2949C62.8256 90.7388 63.6494 90.8552 64.1801 91.3939V88.5107H56.3809Z" fill="#FFFBFB"/>
<path d="M64.997 89.9767V98.3576C64.997 98.9452 64.8669 99.589 64.6172 99.8236H67.8118C67.5638 99.589 67.4337 98.9564 67.4337 98.3708V93.5055L69.1663 98.7105C69.3727 99.2492 69.3293 99.6246 69.1663 99.8236H72.7407C72.3401 99.6002 71.8094 98.78 71.2024 97.0456L70.585 95.2756C71.8631 94.8532 72.7737 93.7514 72.7737 92.1222C72.7737 89.7533 70.8555 88.5107 69.1455 88.5107H64.6172C64.8669 88.7454 64.997 89.3892 64.997 89.9767ZM67.4337 93.5055V90.7388H69.0033C69.8912 90.7388 70.3578 91.3939 70.3578 92.1222C70.3578 92.766 69.9138 93.5055 68.9825 93.5055H67.4337Z" fill="#FFFBFB"/>
<path d="M74.129 99.8228H77.1293C76.446 98.8505 76.035 97.7825 75.872 96.446H78.7752V98.37C78.7752 98.9556 78.6451 99.5882 78.3971 99.8228H81.5917C81.342 99.5882 81.2119 98.9444 81.2119 98.3568V89.3659C80.898 88.7333 79.8262 88.3335 78.8186 88.3335C75.2979 88.3335 73.3711 91.8041 73.3711 95.0289C73.3711 96.9397 73.6087 98.1579 74.129 99.8228ZM75.8841 94.2199C76.0992 92.6713 76.89 90.7492 78.7856 90.7492L78.7752 94.2199H75.8841Z" fill="#FFFBFB"/>
<path d="M81.9121 88.5103C82.1619 88.7449 82.2919 89.3774 82.2919 89.965V98.3703C82.2919 98.9559 82.1619 99.5885 81.9121 99.8231H85.1067C84.8587 99.5885 84.7286 98.9447 84.7286 98.3572V93.8673L87.6752 99.8231H90.49C90.242 99.5885 90.1119 98.9559 90.1119 98.3703V89.965C90.1119 89.3774 90.242 88.7449 90.49 88.5103H87.2954C87.5452 88.7449 87.6752 89.3887 87.6752 89.9762V94.4661L84.7286 88.5103H81.9121Z" fill="#FFFBFB"/>
<path d="M91.084 94.1608C91.084 97.3855 93.1097 100 96.2609 100C97.7559 100 98.9682 99.7074 99.8561 98.7445V94.1608H97.4194V97.7253C97.0847 97.8435 96.7587 97.9017 96.4551 97.9017C94.7885 97.9017 93.5207 96.3306 93.5207 94.1739C93.5207 91.7582 94.9931 90.5738 96.6615 90.5738C98.5363 90.5738 99.2942 91.9928 99.2942 91.9928C99.2942 91.9928 99.6289 90.7502 99.9983 89.7892C99.1641 88.7925 97.7992 88.3345 96.2609 88.3345C93.1097 88.3345 91.084 90.9492 91.084 94.1608Z" fill="#FFFBFB"/>
</svg>
