<svg width="126" height="86" viewBox="0 0 126 86" fill="none" xmlns="http://www.w3.org/2000/svg">
<g clip-path="url(#clip0_1576_9169)">
<path d="M81.4763 15.9132C81.4616 15.8842 81.4146 15.8914 81.4096 15.9266C80.9133 21.1148 78.7567 26.373 70.36 35.5407C69.4214 36.5637 68.6332 37.5988 67.9886 38.6481C67.981 38.6601 67.981 38.6735 67.9886 38.6855C69.8883 41.1771 71.368 43.7191 72.5144 46.1662C72.5242 46.1938 72.5614 46.188 72.5712 46.1613C73.2605 44.1478 74.3299 42.2216 75.7949 40.405L79.3422 36.2014C85.2707 28.6802 85.1892 22.6823 81.4763 15.9141" fill="white"/>
<path d="M64.8152 35.014C64.8299 35.0296 64.8523 35.0273 64.8644 35.0118C65.4794 34.1389 66.1687 33.2816 66.9395 32.4372C80.4993 17.6384 78.0213 11.265 76.6924 7.83896C75.7032 5.29608 74.0578 2.4912 72.4424 0.0387698C72.3873 -0.0445523 72.2579 0.0182734 72.2924 0.111844C73.4571 3.24466 74.5801 9.95677 67.4654 17.5061L56.8209 28.4507C56.6875 28.5982 56.6875 28.751 56.8679 28.8254C59.7335 30.5859 62.4607 32.6342 64.8147 35.014" fill="white"/>
<path d="M87.3854 29.4439C87.3734 29.4056 87.3214 29.4127 87.3188 29.4523C87.2051 32.5994 85.565 35.415 82.2818 39.6248L79.4037 43.282C76.3824 47.0342 75.54 51.2885 76.8519 56.0147C76.8595 56.0423 76.8989 56.0521 76.9137 56.0245C78.0945 54.0038 79.8782 51.4315 82.5804 48.2248L84.9863 45.2639C89.1043 40.1127 89.3563 35.4431 87.385 29.4443" fill="white"/>
<path d="M47.687 34.396C49.9447 35.796 62.5856 43.9825 71.3206 57.2636C71.817 58.0189 72.2915 58.7657 72.7485 59.5017C72.7928 59.5704 72.8595 59.5677 72.8523 59.496C72.3559 55.2572 70.4585 46.0129 63.1885 38.0305C53.1218 26.9776 33.5968 22.971 31.0029 22.4823C30.9188 22.4653 30.882 22.5709 30.9461 22.6253C42.8479 32.8182 37.811 43.9179 46.4793 54.0101C52.445 60.9503 60.3256 60.6923 70.014 60.4998C70.0758 60.4976 70.1179 60.4339 70.0906 60.38C65.9108 52.132 55.8119 41.5479 47.6476 34.4539C47.6131 34.424 47.64 34.3697 47.687 34.3964" fill="white"/>
<path d="M14.4304 68.8329L11.439 78.3557L8.58912 68.8329H5.43439L0 84.8927H3.67261L6.91955 75.2572L9.78825 84.8927H12.9501L16.0373 75.2384L19.149 84.8927H22.8181L17.5833 68.8329H14.4304Z" fill="white"/>
<path d="M33.3527 68.3708C28.0549 68.3708 24.3545 71.8628 24.3545 76.8626C24.3545 81.8623 28.139 85.3547 33.3527 85.3547C38.5664 85.3547 42.3514 81.8628 42.3514 76.8626C42.3514 71.8624 38.5669 68.3708 33.3527 68.3708ZM38.9004 76.8626C38.9004 79.1983 37.1645 81.7122 33.3527 81.7122C29.5409 81.7122 27.8046 79.2722 27.8046 76.8626C27.8046 74.4529 29.7101 72.0134 33.3527 72.0134C36.9953 72.0134 38.9004 74.4529 38.9004 76.8626Z" fill="white"/>
<path d="M60.789 73.6861C60.789 70.5564 58.7286 68.8329 54.9875 68.8329H45.9092V84.8927H49.3598V78.7705H53.3538L57.3236 84.8927H61.5727L57.4243 78.5192C59.6583 77.8611 60.7894 76.2383 60.7894 73.6861H60.789ZM57.3379 73.744C57.3379 74.4284 57.0872 75.1279 55.2265 75.1279H49.3593V72.4746H55.0941C57.0027 72.4746 57.3379 72.6648 57.3379 73.7435V73.744Z" fill="white"/>
<path d="M79.5829 73.6861C79.5829 70.5564 77.5225 68.8329 73.7814 68.8329H64.7026V84.8927H68.1532V78.7705H72.1477L76.1175 84.8927H80.3662L76.2178 78.5192C78.4518 77.8611 79.5829 76.2383 79.5829 73.6861ZM76.1318 73.744C76.1318 74.4284 75.8812 75.1279 74.02 75.1279H68.1528V72.4746H73.8875C75.7961 72.4746 76.1314 72.6648 76.1314 73.7435L76.1318 73.744Z" fill="white"/>
<path d="M91.7072 68.3708C86.4089 68.3708 82.7085 71.8628 82.7085 76.8626C82.7085 81.8623 86.493 85.3547 91.7072 85.3547C96.9213 85.3547 100.706 81.8628 100.706 76.8626C100.706 71.8624 96.9213 68.3708 91.7072 68.3708ZM91.7072 81.7122C88.0646 81.7122 86.1591 79.2722 86.1591 76.8626C86.1591 74.4529 88.0646 72.0134 91.7072 72.0134C95.3498 72.0134 97.2544 74.4529 97.2544 76.8626C97.2544 79.2722 95.5185 81.7122 91.7072 81.7122Z" fill="white"/>
<path d="M121.411 68.8329L118.163 78.4688L115.295 68.8329H112.133L109.045 78.4867L105.933 68.8329H102.266L107.499 84.8927H110.653L113.644 75.3694L116.495 84.8927H119.648L125.083 68.8329H121.411Z" fill="white"/>
</g>
<defs>
<clipPath id="clip0_1576_9169">
<rect width="125.083" height="85.3543" fill="white"/>
</clipPath>
</defs>
</svg>
