<svg width="182" height="74" viewBox="0 0 182 74" fill="none" xmlns="http://www.w3.org/2000/svg">
<path d="M104.13 9.92946C104.121 9.9114 104.091 9.91585 104.088 9.93779C103.779 13.1724 102.434 16.4506 97.1993 22.1662C96.6141 22.8041 96.1227 23.4494 95.7208 24.1036C95.7161 24.1111 95.7161 24.1194 95.7208 24.1269C96.9052 25.6803 97.8278 27.2651 98.5424 28.7908C98.5486 28.808 98.5717 28.8044 98.5779 28.7877C99.0076 27.5324 99.6743 26.3315 100.588 25.1989L102.799 22.5782C106.495 17.8891 106.445 14.1497 104.13 9.93001" fill="white"/>
<path d="M93.7424 21.8379C93.7516 21.8476 93.7655 21.8462 93.7731 21.8365C94.1565 21.2923 94.5863 20.7578 95.0668 20.2314C103.521 11.0051 101.976 7.03151 101.147 4.89556C100.531 3.3102 99.5047 1.56149 98.4976 0.0325175C98.4632 -0.0194298 98.3826 0.019739 98.4041 0.0780755C99.1302 2.03124 99.8304 6.21591 95.3947 10.9226L88.7583 17.746C88.6752 17.8379 88.6752 17.9332 88.7876 17.9796C90.5742 19.0772 92.2745 20.3542 93.7421 21.8379" fill="white"/>
<path d="M107.814 18.3652C107.807 18.3413 107.774 18.3458 107.773 18.3705C107.702 20.3325 106.679 22.0879 104.632 24.7125L102.838 26.9926C100.954 29.3319 100.429 31.9843 101.247 34.9308C101.252 34.9481 101.276 34.9542 101.286 34.9369C102.022 33.6771 103.134 32.0735 104.819 30.0742L106.319 28.2282C108.886 25.0167 109.043 22.1054 107.814 18.3655" fill="white"/>
<path d="M83.0639 21.4526C84.4714 22.3254 92.3524 27.4293 97.7983 35.7095C98.1078 36.1803 98.4036 36.6459 98.6885 37.1048C98.7161 37.1476 98.7577 37.1459 98.7532 37.1012C98.4438 34.4586 97.2608 28.6952 92.7283 23.7185C86.4522 16.8276 74.2793 14.3297 72.6621 14.0249C72.6097 14.0144 72.5868 14.0802 72.6267 14.1141C80.0469 20.4689 76.9067 27.389 82.311 33.681C86.0303 38.0079 90.9434 37.8471 96.9837 37.7271C97.0222 37.7257 97.0484 37.686 97.0314 37.6523C94.4256 32.5101 88.1294 25.9114 83.0393 21.4887C83.0178 21.4701 83.0346 21.4362 83.0639 21.4528" fill="white"/>
<path d="M20.9639 49.4382L16.6353 63.2181L12.5113 49.4382H7.94631L0.0825195 72.6774H5.39694L10.0954 58.7344L14.2465 72.6774H18.8219L23.2892 58.7073L27.792 72.6774H33.1012L25.5263 49.4382H20.9639Z" fill="white"/>
<path d="M48.3455 48.7696C40.6793 48.7696 35.3247 53.8226 35.3247 61.0575C35.3247 68.2924 40.8011 73.346 48.3455 73.346C55.89 73.346 61.367 68.293 61.367 61.0575C61.367 53.822 55.8907 48.7696 48.3455 48.7696ZM56.3732 61.0575C56.3732 64.4373 53.8614 68.0751 48.3455 68.0751C42.8297 68.0751 40.3172 64.5444 40.3172 61.0575C40.3172 57.5706 43.0745 54.0405 48.3455 54.0405C53.6166 54.0405 56.3732 57.5706 56.3732 61.0575Z" fill="white"/>
<path d="M88.0468 56.461C88.0468 51.9321 85.0654 49.4382 79.6519 49.4382H66.5151V72.6774H71.5083V63.8183H77.2878L83.0323 72.6774H89.1809L83.178 63.4547C86.4107 62.5024 88.0475 60.1542 88.0475 56.461H88.0468ZM83.053 56.5448C83.053 57.5351 82.6903 58.5474 79.9978 58.5474H71.5076V54.7079H79.806C82.5679 54.7079 83.053 54.9832 83.053 56.5441V56.5448Z" fill="white"/>
<path d="M115.243 56.461C115.243 51.9321 112.261 49.4382 106.848 49.4382H93.7104V72.6774H98.7036V63.8183H104.484L110.228 72.6774H116.376L110.373 63.4547C113.606 62.5024 115.243 60.1542 115.243 56.461ZM110.249 56.5448C110.249 57.5351 109.886 58.5474 107.193 58.5474H98.703V54.7079H107.001C109.763 54.7079 110.248 54.9832 110.248 56.5441L110.249 56.5448Z" fill="white"/>
<path d="M132.787 48.7696C125.12 48.7696 119.766 53.8226 119.766 61.0575C119.766 68.2924 125.242 73.346 132.787 73.346C140.332 73.346 145.809 68.293 145.809 61.0575C145.809 53.822 140.332 48.7696 132.787 48.7696ZM132.787 68.0751C127.516 68.0751 124.759 64.5444 124.759 61.0575C124.759 57.5706 127.516 54.0405 132.787 54.0405C138.058 54.0405 140.814 57.5706 140.814 61.0575C140.814 64.5444 138.302 68.0751 132.787 68.0751Z" fill="white"/>
<path d="M175.77 49.4382L171.07 63.3818L166.919 49.4382H162.343L157.876 63.4076L153.373 49.4382H148.065L155.639 72.6774H160.202L164.531 58.8969L168.655 72.6774H173.219L181.083 49.4382H175.77Z" fill="white"/>
</svg>
