<svg width="513" height="539" viewBox="0 0 513 539" fill="none" xmlns="http://www.w3.org/2000/svg">
<g opacity="0.2" clip-path="url(#clip0_1523_5432)">
<path d="M449.808 141.614C449.676 141.356 449.258 141.419 449.214 141.733C444.799 187.904 425.614 234.697 350.918 316.282C342.568 325.386 335.556 334.597 329.822 343.935C329.754 344.042 329.754 344.161 329.822 344.268C346.721 366.442 359.885 389.063 370.083 410.84C370.17 411.086 370.501 411.034 370.589 410.796C376.721 392.878 386.233 375.736 399.266 359.57L430.822 322.162C483.562 255.229 482.837 201.853 449.808 141.622" fill="#5B7E71"/>
<path d="M301.591 311.595C301.722 311.733 301.921 311.714 302.029 311.575C307.5 303.807 313.632 296.178 320.489 288.664C441.115 156.967 419.072 100.249 407.25 69.76C398.45 47.1305 383.812 22.1694 369.442 0.344884C368.952 -0.396612 367.801 0.162484 368.108 0.99518C378.469 28.8746 388.459 88.6067 325.167 155.789L230.475 253.187C229.288 254.5 229.288 255.86 230.893 256.522C256.385 272.188 280.646 290.416 301.587 311.595" fill="#5B7E71"/>
<path d="M502.376 262.026C502.269 261.685 501.807 261.748 501.783 262.101C500.772 290.107 486.182 315.164 456.975 352.627L431.372 385.173C404.494 418.565 397 456.424 408.671 498.484C408.739 498.729 409.089 498.817 409.221 498.571C419.725 480.589 435.593 457.697 459.631 429.16L481.034 402.811C517.667 356.969 519.909 315.413 502.372 262.03" fill="#5B7E71"/>
<path d="M149.221 306.095C169.305 318.554 281.757 391.407 359.463 509.598C363.879 516.319 368.1 522.965 372.165 529.515C372.56 530.126 373.153 530.102 373.089 529.464C368.673 491.743 351.794 409.476 287.121 338.439C197.564 240.078 23.8713 204.423 0.79638 200.073C0.0477884 199.922 -0.278725 200.862 0.290682 201.346C106.169 292.054 61.3606 390.832 138.473 480.644C191.544 542.406 261.649 540.11 347.836 538.397C348.386 538.378 348.76 537.81 348.517 537.331C311.334 463.931 221.495 369.741 148.866 306.611C148.56 306.345 148.798 305.861 149.217 306.099" fill="#5B7E71"/>
</g>
<defs>
<clipPath id="clip0_1523_5432">
<rect width="513" height="539" fill="white"/>
</clipPath>
</defs>
</svg>
