<svg width="391" height="410" viewBox="0 0 391 410" fill="none" xmlns="http://www.w3.org/2000/svg">
<g opacity="0.2" clip-path="url(#clip0_1581_9224)">
<path d="M342.836 107.721C342.736 107.525 342.417 107.573 342.384 107.812C339.018 142.932 324.396 178.527 267.464 240.585C261.1 247.511 255.755 254.517 251.385 261.62C251.333 261.702 251.333 261.792 251.385 261.874C264.265 278.74 274.298 295.948 282.071 312.513C282.138 312.7 282.39 312.661 282.456 312.48C287.13 298.85 294.381 285.81 304.314 273.513L328.365 245.058C368.563 194.145 368.011 153.543 342.836 107.727" fill="#5B7E71"/>
<path d="M229.867 237.02C229.968 237.126 230.119 237.111 230.201 237.005C234.371 231.096 239.045 225.293 244.271 219.577C336.211 119.4 319.409 76.2558 310.399 53.0641C303.692 35.8506 292.535 16.8635 281.582 0.262294C281.209 -0.301738 280.332 0.123548 280.566 0.756953C288.462 21.964 296.077 67.4002 247.837 118.504L175.664 192.591C174.759 193.59 174.759 194.624 175.982 195.128C195.412 207.045 213.904 220.91 229.864 237.02" fill="#5B7E71"/>
<path d="M382.903 199.314C382.821 199.055 382.469 199.103 382.451 199.372C381.68 220.675 370.56 239.735 348.299 268.232L328.784 292.989C308.299 318.388 302.587 347.187 311.482 379.18C311.534 379.367 311.801 379.434 311.901 379.247C319.907 365.568 332.001 348.155 350.323 326.448L366.636 306.405C394.557 271.535 396.266 239.925 382.9 199.317" fill="#5B7E71"/>
<path d="M113.733 232.837C129.041 242.314 214.75 297.73 273.977 387.635C277.342 392.747 280.56 397.802 283.658 402.785C283.959 403.25 284.411 403.232 284.362 402.746C280.997 374.053 268.132 311.475 218.838 257.44C150.58 182.62 18.1943 155.498 0.606982 152.189C0.0364185 152.074 -0.212444 152.789 0.221548 153.157C80.9199 222.156 46.768 297.293 105.542 365.61C145.991 412.591 199.424 410.844 265.115 409.541C265.534 409.526 265.819 409.095 265.634 408.73C237.294 352.897 168.82 281.25 113.463 233.229C113.23 233.027 113.412 232.659 113.73 232.84" fill="#5B7E71"/>
</g>
<defs>
<clipPath id="clip0_1581_9224">
<rect width="391" height="410" fill="white"/>
</clipPath>
</defs>
</svg>
